<?xml version="1.0" standalone="no"?>
<!DOCTYPE svg PUBLIC "-//W3C//DTD SVG 20010904//EN"
 "http://www.w3.org/TR/2001/REC-SVG-20010904/DTD/svg10.dtd">
<svg version="1.0" xmlns="http://www.w3.org/2000/svg"
 width="3000.000000pt" height="2000.000000pt" viewBox="0 0 3000.000000 2000.000000"
 preserveAspectRatio="xMidYMid meet">
<metadata>
Created by potrace 1.16, written by Peter Selinger 2001-2019
</metadata>
<g transform="translate(0.000000,2000.000000) scale(0.100000,-0.100000)"
fill="#000000" stroke="none">
<path d="M0 15434 l0 -4565 43 35 c77 66 169 136 178 136 4 0 19 10 32 23 12
12 40 36 61 52 21 17 44 36 51 43 8 6 18 12 23 12 6 0 12 3 14 8 2 4 26 23 53
42 28 19 56 40 63 47 7 7 20 13 28 13 7 0 16 12 20 28 36 166 -27 -353 -87
-713 -96 -578 -272 -1334 -440 -1891 l-39 -131 0 -2339 c1 -2085 3 -2336 16
-2311 8 15 12 33 8 39 -4 6 -3 8 3 5 9 -6 93 148 93 171 0 6 6 12 14 15 9 4
12 14 9 28 -4 15 -3 20 5 15 15 -9 15 -1 1 27 -7 12 -8 19 -4 15 5 -4 15 -2
23 5 13 10 14 9 7 -2 -5 -9 -4 -12 3 -7 18 11 25 65 11 82 -10 12 -10 15 2 12
9 -2 14 5 13 19 0 17 3 20 16 13 13 -7 20 -3 31 18 7 15 13 32 14 37 0 6 4 16
9 23 4 7 5 16 2 19 -3 4 -6 1 -6 -6 0 -7 -5 -9 -11 -5 -9 5 -10 -1 -5 -20 3
-14 2 -26 -3 -26 -5 0 -11 -8 -13 -18 -3 -14 -5 -13 -10 6 -3 12 -2 20 3 16 5
-3 9 6 9 20 0 13 7 31 15 39 8 8 11 18 7 22 -4 5 -2 5 5 1 7 -4 17 2 23 14 6
11 15 18 20 15 6 -3 7 1 3 10 -3 10 0 21 8 26 11 7 11 9 1 9 -8 0 -16 -9 -19
-20 -3 -11 -9 -20 -14 -20 -4 0 6 28 22 63 17 34 46 94 65 134 19 40 39 75 44
78 6 4 8 10 5 15 -4 7 26 82 75 185 31 64 116 276 192 475 168 443 287 861
362 1265 15 85 43 276 45 310 1 11 3 38 6 60 3 22 6 54 6 71 0 17 4 46 9 64 7
24 6 36 -4 46 -12 11 -13 7 -10 -29 3 -32 2 -37 -5 -22 -8 16 -10 13 -10 -20
1 -56 -14 -149 -72 -462 -42 -226 -146 -637 -186 -733 -3 -8 -7 -17 -8 -20 0
-3 -7 -29 -14 -58 -7 -28 -17 -55 -22 -58 -5 -3 -9 -13 -9 -22 0 -33 -63 -192
-73 -185 -6 4 -8 0 -4 -10 3 -8 -3 -37 -14 -64 -11 -26 -18 -38 -15 -26 2 13
0 23 -5 23 -5 0 -9 -11 -9 -24 0 -14 -4 -27 -9 -30 -4 -3 -6 7 -4 22 4 21 2
24 -6 12 -6 -8 -11 -10 -11 -5 0 6 5 16 11 22 21 21 -8 53 -46 53 -32 0 -35 2
-35 30 0 28 -2 30 -40 30 -22 0 -40 5 -40 10 0 6 -33 10 -80 10 l-80 0 -1 33
c0 27 -2 29 -9 12 -7 -17 -9 -17 -9 -2 -1 23 -17 22 -24 -3 -6 -22 -24 -25
-47 -9 -11 8 -12 12 -3 16 7 2 13 13 13 22 0 14 -6 17 -25 13 -14 -2 -25 -1
-24 4 1 5 1 18 0 29 -1 17 -3 18 -11 5 -13 -20 -12 -13 1 30 6 19 13 51 15 70
16 116 137 526 208 701 70 174 156 336 233 439 49 67 182 199 220 219 52 27
63 31 77 31 8 0 16 7 20 15 7 18 66 20 85 3 11 -10 13 -10 7 0 -5 9 4 12 33
12 23 0 41 5 41 10 0 6 -70 10 -190 10 -104 0 -190 -3 -190 -7 0 -3 12 -31 26
-60 31 -66 26 -82 -6 -21 -47 89 -51 98 -44 110 4 7 3 10 -1 5 -5 -4 -23 19
-40 50 -49 90 -84 153 -121 214 -38 64 -39 69 -20 112 108 251 314 923 455
1484 81 322 216 960 252 1186 6 42 16 77 21 77 18 0 176 -90 292 -165 l30 -20
-29 50 c-16 28 -72 120 -124 205 -52 85 -101 167 -110 182 -14 24 -14 37 2
145 67 439 129 910 140 1046 1 9 5 17 9 17 5 0 5 -19 1 -42 -6 -40 -5 -42 10
-26 10 9 18 29 18 45 2 24 2 25 6 5 l4 -22 42 22 c23 13 49 30 58 38 19 16 36
29 60 45 104 68 135 90 142 102 4 7 13 13 19 13 6 0 25 10 42 23 17 13 39 26
48 30 10 3 18 11 18 17 0 5 5 10 12 10 6 0 35 18 64 40 29 22 56 40 58 40 7 0
193 132 216 152 8 8 27 19 41 27 15 7 37 23 51 35 13 13 43 35 66 51 23 15 39
32 35 38 -3 6 -1 7 5 3 7 -4 28 8 50 28 20 20 45 39 55 42 9 3 17 9 17 14 0 4
24 23 52 41 29 19 60 41 69 49 44 42 256 199 287 213 12 6 22 16 22 23 0 7 5
14 11 16 9 3 9 9 0 26 -10 18 -9 21 4 16 8 -4 15 -10 15 -15 0 -5 7 -9 16 -9
10 0 14 6 11 14 -4 10 -1 13 9 9 7 -3 14 0 14 5 0 6 9 13 19 17 16 5 57 33
106 73 6 4 25 17 43 27 17 11 32 23 32 27 0 11 -18 10 -25 -2 -3 -5 -12 -10
-18 -10 -23 1 27 30 51 30 25 0 119 66 115 81 -2 4 4 6 11 3 11 -4 13 0 9 18
-3 16 -2 19 5 10 7 -11 18 -7 53 17 24 16 59 43 78 60 19 16 46 35 60 43 14 7
28 15 31 18 4 5 50 37 110 78 2 2 -2 8 -10 13 -12 9 -12 10 3 5 11 -3 34 6 59
24 22 17 47 30 55 30 13 0 17 11 14 40 -2 13 0 13 8 1 7 -11 14 -10 39 8 l31
21 6 -47 c3 -27 10 -64 15 -83 5 -19 25 -111 45 -205 55 -257 142 -576 196
-721 l21 -56 -44 -56 c-24 -31 -68 -88 -98 -127 -29 -38 -67 -87 -83 -108
l-30 -39 -27 74 c-36 98 -54 133 -182 346 -60 101 -125 217 -144 258 l-35 74
-74 -56 -74 -57 21 -41 c25 -50 71 -129 156 -265 88 -141 158 -292 181 -387
32 -131 32 -149 7 -186 -13 -18 -82 -118 -155 -221 -135 -193 -313 -464 -436
-664 -38 -62 -71 -110 -74 -108 -4 5 -42 908 -57 1373 -4 116 -11 212 -15 212
-5 0 -168 -119 -363 -264 l-354 -265 -6 -288 c-13 -548 -26 -1059 -36 -1318
-14 -374 -30 -723 -35 -777 -4 -47 -3 -48 78 -145 324 -385 572 -769 851
-1318 l35 -70 0 60 c1 33 -6 247 -14 475 -8 228 -19 546 -25 705 -6 160 -15
380 -20 489 -6 109 -10 239 -10 288 l0 90 136 271 c75 150 143 281 152 292
l14 20 -7 -20 c-24 -64 -67 -228 -80 -303 -54 -313 -38 -596 59 -1032 88 -396
111 -561 103 -740 -6 -122 -16 -173 -76 -385 -46 -158 -5 -192 66 -55 107 206
143 367 143 632 1 187 -15 330 -65 613 -55 308 -65 387 -72 570 -11 318 37
583 160 875 25 58 75 177 112 265 84 200 138 364 166 501 16 80 32 125 62 178
22 39 62 112 90 161 101 182 162 285 167 285 4 0 20 -28 36 -62 53 -115 164
-287 255 -400 129 -158 369 -355 511 -418 l48 -21 -1 -497 c0 -563 15 -863 49
-987 9 -34 36 -45 46 -19 19 50 26 261 26 828 l0 628 23 -6 c51 -15 154 -36
179 -36 23 0 31 -8 48 -47 70 -159 130 -383 156 -585 18 -142 16 -404 -6 -843
-5 -110 -14 -299 -20 -420 -6 -121 -13 -250 -15 -288 l-5 -67 122 122 c68 68
142 138 165 156 l43 33 -13 -28 c-8 -15 -42 -86 -77 -158 -80 -167 -176 -381
-228 -515 l-41 -105 -32 -490 c-18 -269 -35 -534 -38 -588 -4 -53 -12 -102
-19 -109 -7 -7 -12 -17 -12 -22 0 -6 5 -4 10 4 7 11 10 -1 10 -40 0 -41 -3
-51 -11 -40 -7 11 -9 4 -4 -25 3 -22 1 -83 -5 -135 -9 -87 -28 -251 -29 -257
-1 -2 -55 -3 -121 -3 -100 0 -120 3 -120 15 0 12 -15 15 -79 15 -67 0 -80 -3
-84 -17 -3 -13 -5 -11 -6 6 0 13 13 79 29 148 17 68 30 137 30 153 0 20 5 30
15 30 8 0 15 7 15 15 0 8 -9 15 -20 15 -11 0 -20 -7 -20 -16 0 -8 -4 -13 -9
-10 -5 4 -7 -2 -5 -11 3 -10 -2 -27 -10 -38 -14 -18 -15 -18 -16 -2 0 13 -9
17 -40 17 -38 0 -40 2 -40 30 l0 30 -80 0 c-47 0 -80 4 -80 10 0 6 -33 10 -80
10 -64 0 -80 3 -80 15 0 8 -4 15 -10 15 -5 0 -10 7 -10 15 0 22 -15 18 -27 -7
-35 -74 -62 -136 -68 -158 -4 -14 -14 -34 -21 -45 -8 -11 -14 -29 -14 -41 0
-12 -7 -27 -15 -34 -8 -7 -15 -22 -15 -34 0 -12 -11 -46 -25 -74 -14 -29 -25
-62 -26 -74 0 -13 -4 -32 -9 -43 -6 -13 -7 1 -3 38 l6 57 -42 0 c-37 0 -41 2
-41 25 l0 25 -160 0 c-136 0 -160 2 -160 15 0 11 -11 15 -37 15 l-38 0 3 -55
c3 -45 1 -55 -12 -55 -12 0 -16 10 -16 41 0 71 -29 98 -50 45 -8 -20 -8 -20
-15 6 -4 15 -2 41 3 58 7 20 8 30 1 30 -6 0 -7 5 -3 12 5 7 3 8 -5 3 -7 -4
-10 -16 -8 -27 3 -10 -1 -39 -10 -63 -11 -33 -12 -48 -3 -62 10 -16 10 -16 5
4 -3 12 -1 24 5 28 6 4 10 -6 10 -24 0 -16 5 -31 12 -33 8 -3 8 -9 0 -24 -10
-17 -11 -17 -12 -1 0 9 -4 17 -10 17 -5 0 -10 -13 -10 -30 0 -17 5 -29 11 -27
6 1 14 -5 16 -13 4 -13 3 -13 -6 0 -9 12 -11 10 -12 -10 l-1 -25 -8 25 c-4 14
-8 45 -9 69 -1 24 -3 42 -6 40 -5 -6 -17 -102 -18 -141 0 -15 -4 -25 -8 -22
-8 5 -10 -7 -13 -63 -1 -10 -5 -21 -10 -25 -5 -3 -2 -23 6 -45 9 -21 32 -105
52 -188 20 -82 47 -193 60 -245 13 -52 29 -120 35 -150 6 -30 20 -95 30 -145
11 -49 25 -119 31 -155 5 -36 14 -87 20 -115 29 -154 44 -311 31 -320 -6 -3
-11 -1 -11 5 0 6 -5 8 -11 4 -12 -7 -10 14 5 76 6 24 6 24 -5 3 -6 -12 -20
-24 -31 -27 -16 -4 -19 -11 -16 -29 4 -18 1 -24 -9 -20 -15 6 -18 43 -3 43 6
0 10 12 9 28 l-1 27 -11 -27 c-9 -24 -17 -28 -49 -28 -21 0 -38 -4 -38 -10 0
-5 -18 -10 -40 -10 -38 0 -40 -1 -34 -26 5 -18 1 -32 -14 -47 -10 -12 -25 -35
-31 -52 -6 -18 -9 -21 -7 -8 5 25 -12 31 -32 11 -9 -9 -12 -9 -12 -1 0 7 4 14
8 17 5 3 7 20 4 37 -4 29 -6 30 -17 15 -12 -15 -13 -15 -18 4 -3 11 -1 20 4
20 5 0 9 8 9 18 0 14 -2 15 -10 2 -8 -12 -10 -11 -10 7 0 29 -10 54 -20 48 -4
-3 -7 3 -6 12 0 9 -4 17 -9 19 -6 3 -20 -53 -33 -133 -28 -178 -88 -445 -102
-453 -6 -4 -6 -17 1 -41 6 -18 12 -47 14 -64 2 -16 17 -84 34 -150 69 -275
177 -854 251 -1345 17 -113 35 -232 40 -265 17 -106 109 -768 114 -825 3 -30
10 -79 16 -109 13 -68 13 -84 -1 -75 -6 3 -4 -4 4 -17 8 -13 18 -58 21 -99 4
-41 14 -121 24 -178 13 -83 14 -105 3 -111 -9 -6 -10 -19 -5 -45 6 -36 5 -38
-17 -34 -20 2 -25 10 -27 41 -4 50 -22 48 -22 -3 l0 -40 -245 0 c-226 0 -245
-1 -246 -17 0 -13 -3 -11 -10 7 -11 27 -4 71 14 82 8 5 6 8 -5 8 -10 0 -19
-11 -23 -30 -4 -17 -11 -28 -16 -24 -5 3 -6 17 -3 32 4 19 3 23 -4 14 -13 -19
-32 36 -28 80 2 18 1 25 -1 15 -2 -9 -8 -15 -13 -12 -5 3 -5 16 0 31 13 33 12
44 -1 20 -10 -16 -14 -11 -30 38 -11 31 -16 62 -13 68 4 6 3 8 -4 4 -6 -3 -15
9 -22 31 -7 21 -17 44 -22 50 -6 7 -8 19 -5 27 3 8 3 16 -1 18 -12 5 -52 117
-52 144 0 14 -4 23 -8 20 -5 -3 -28 46 -51 107 -59 151 -299 755 -316 792 -8
17 -30 71 -50 120 -21 50 -40 94 -45 98 -19 21 -370 -621 -370 -677 0 -9 19
-42 43 -73 24 -32 71 -96 105 -143 34 -47 87 -116 117 -155 155 -199 229 -292
246 -313 11 -13 17 -28 13 -34 -4 -6 -3 -8 3 -5 6 4 20 -4 32 -17 18 -19 20
-28 13 -43 -9 -16 -7 -19 11 -20 12 0 16 1 10 4 -7 3 -13 9 -13 15 0 6 9 3 20
-7 12 -10 18 -25 15 -33 -3 -8 0 -21 7 -29 9 -11 9 -16 -2 -23 -9 -5 -5 -8 13
-7 l26 2 -21 22 c-12 13 -19 25 -16 29 5 4 67 -65 139 -154 19 -24 0 -26 -20
-3 -21 24 -49 22 -72 -5 -16 -19 -3 -33 47 -50 33 -11 39 -11 50 4 12 16 13
16 14 0 0 -9 -6 -18 -12 -21 -10 -4 -10 -7 0 -18 9 -9 12 -10 12 -1 0 7 7 12
15 12 19 0 19 10 -2 40 -9 14 2 6 26 -18 33 -34 41 -48 35 -65 -5 -18 -4 -20
7 -10 7 7 17 13 23 13 5 0 2 -6 -9 -13 -26 -20 -69 -16 -73 5 -2 12 3 18 13
18 11 0 15 -5 11 -15 -3 -8 -1 -15 3 -15 18 0 21 33 4 45 -14 10 -20 8 -40
-14 -23 -24 -23 -26 -7 -38 10 -7 13 -13 8 -13 -18 0 -33 22 -27 39 5 13 3 14
-7 4 -11 -10 -6 -21 26 -57 21 -24 45 -42 52 -40 7 2 11 0 8 -5 -10 -15 64
-90 82 -84 13 4 14 3 3 -5 -10 -7 -2 -23 38 -73 50 -62 182 -252 190 -273 2
-6 9 -18 16 -26 7 -8 41 -69 75 -135 34 -66 71 -136 81 -155 46 -87 114 -262
149 -380 11 -41 28 -97 36 -123 9 -27 13 -51 10 -55 -3 -3 -6 0 -6 7 0 6 -9
21 -20 33 -11 12 -20 17 -20 11 0 -6 -3 -20 -6 -30 -5 -15 -4 -16 5 -3 9 12
10 7 5 -22 -4 -25 -1 -47 10 -69 9 -18 16 -38 16 -46 0 -10 42 -13 220 -13
121 0 220 2 220 4 0 3 -7 56 -15 118 -8 62 -17 138 -19 168 -3 30 -14 127 -25
215 -12 88 -37 291 -56 450 -51 423 -118 927 -181 1365 -31 212 -60 417 -65
455 -54 389 -194 1216 -255 1510 -13 66 -32 153 -40 193 -8 40 -31 135 -51
210 -19 75 -38 153 -40 172 -5 30 -7 32 -15 15 -7 -16 -7 -14 -4 9 2 16 0 43
-5 59 -5 17 -6 33 -4 35 5 5 153 36 340 71 55 10 138 21 185 25 l86 6 12 -43
c7 -24 30 -65 50 -92 75 -100 192 -127 305 -72 90 44 134 106 152 211 l6 39
212 -7 c298 -11 339 -13 399 -25 29 -5 82 -13 118 -16 128 -12 378 -57 526
-95 227 -57 452 -151 659 -277 98 -60 265 -182 265 -195 0 -4 -99 -207 -219
-450 -277 -561 -397 -819 -580 -1253 -72 -169 -161 -445 -172 -536 -18 -136
10 -170 94 -112 48 34 241 247 271 302 5 9 12 18 16 21 4 3 40 50 81 105 41
55 76 102 79 105 3 3 10 13 15 22 6 9 40 58 77 110 200 280 332 473 350 515 7
15 15 30 18 33 14 13 110 160 110 170 0 5 5 10 10 10 6 0 10 7 10 15 0 8 5 15
10 15 6 0 10 4 10 10 0 5 29 54 65 109 36 54 65 105 65 112 -1 9 -6 7 -15 -5
-8 -11 -15 -14 -15 -8 0 7 -15 12 -38 12 -43 0 -44 4 -45 105 l0 40 -10 -35
c-5 -19 -12 -42 -15 -50 -3 -8 -6 -18 -6 -22 -1 -3 -5 -10 -10 -15 -5 -4 -5 7
-2 27 6 27 5 32 -4 20 -13 -17 -13 -16 16 95 9 33 20 64 25 70 5 5 9 18 9 30
0 12 4 25 9 30 5 6 14 28 21 50 7 22 18 54 25 70 7 17 24 59 37 95 76 195 102
256 114 266 8 6 46 12 86 13 40 1 132 6 203 12 72 6 162 10 200 10 39 -1 91 2
117 7 25 5 52 6 58 2 15 -9 5 -42 -52 -180 -22 -52 -46 -115 -55 -140 -17 -50
-121 -254 -174 -342 -19 -32 -39 -55 -46 -53 -7 2 -10 -2 -7 -10 8 -20 -46
-89 -60 -75 -5 5 -24 9 -40 9 -17 -1 -23 -3 -13 -6 20 -5 21 -21 3 -46 -15
-20 -30 -8 -20 16 4 12 0 14 -17 10 -17 -5 -21 -3 -17 8 4 10 -1 15 -12 15
-10 0 -16 -6 -13 -12 3 -7 -6 -14 -19 -16 -16 -2 -24 -11 -26 -28 -2 -21 -1
-22 9 -10 10 13 10 13 6 0 -3 -8 -8 -23 -12 -32 -4 -11 -3 -18 4 -18 6 0 11
-15 12 -32 0 -18 3 -27 6 -20 2 6 9 12 15 12 6 0 3 -11 -5 -24 -9 -13 -13 -26
-10 -29 16 -17 24 -475 10 -622 -8 -87 -2 -88 32 -5 45 109 222 458 297 585
152 258 321 494 500 698 38 43 58 74 144 224 14 24 44 66 68 93 40 46 47 50
88 50 24 0 44 4 44 9 0 5 9 7 19 4 14 -3 51 19 123 74 57 44 160 114 230 155
70 42 124 79 120 82 -3 4 2 4 12 0 15 -6 17 -4 11 6 -5 9 -4 11 3 6 18 -11 37
4 21 16 -10 7 -8 8 7 3 14 -3 53 9 110 36 78 36 188 80 234 94 113 35 279 78
330 86 69 11 291 13 350 3 44 -7 116 -31 153 -51 15 -8 33 -11 40 -7 6 4 9 4
5 -1 -4 -4 13 -21 37 -37 24 -16 64 -52 88 -79 l44 -50 -11 35 c-6 20 -15 36
-19 36 -5 0 -6 4 -2 9 3 6 -8 38 -24 73 -31 65 -40 86 -86 203 -15 39 -36 90
-47 114 -11 24 -28 67 -39 95 -11 28 -23 60 -28 71 -35 80 -35 79 8 136 60 79
101 192 101 276 -1 258 -151 437 -397 474 -68 10 -87 16 -91 31 -2 10 -9 15
-15 11 -5 -3 -7 -1 -4 4 8 12 -29 109 -50 134 -7 9 -11 18 -9 20 2 2 -72 3
-165 1 -140 -2 -169 -5 -169 -17 0 -11 -11 -15 -38 -15 -29 0 -39 -5 -47 -22
-7 -17 -20 -24 -45 -26 -38 -3 -110 22 -110 38 0 6 18 17 40 26 31 13 40 22
40 40 0 21 -5 24 -39 24 -22 0 -42 -6 -45 -12 -5 -10 -7 -10 -12 0 -3 6 -16
12 -29 12 -18 0 -22 4 -18 20 4 15 11 19 25 14 17 -5 18 -4 6 15 -7 12 -17 21
-21 21 -5 0 -6 8 -2 17 7 18 13 41 14 56 1 12 21 -2 21 -14 0 -6 -5 -7 -12 -3
-7 4 -8 3 -4 -5 4 -6 12 -9 17 -6 5 4 9 1 9 -6 0 -7 3 -10 6 -7 3 4 -2 20 -11
37 -9 17 -11 31 -5 31 5 0 10 -5 10 -12 0 -6 3 -8 6 -5 4 4 2 12 -4 20 -16 19
-4 57 16 50 12 -3 13 -2 4 4 -9 7 -10 26 0 92 19 136 -12 246 -102 360 -77 98
-161 141 -275 141 -75 -1 -133 -14 -201 -46 -30 -14 -59 -22 -65 -18 -7 4 -9
3 -6 -3 9 -14 -61 -56 -76 -47 -7 4 -9 4 -5 0 4 -5 -28 -35 -70 -69 -42 -33
-131 -113 -197 -178 -109 -106 -123 -116 -152 -113 -32 4 -63 -15 -63 -39 0
-6 7 -1 16 11 8 12 22 22 30 22 19 0 18 -16 -2 -24 -10 -4 -13 -13 -9 -25 3
-11 -1 -24 -12 -32 -15 -12 -16 -12 -10 4 4 11 3 16 -4 12 -6 -4 -8 -13 -5
-21 3 -7 -11 -31 -31 -51 -19 -21 -33 -33 -30 -27 4 6 0 11 -8 11 -11 0 -12
-5 -3 -21 10 -18 9 -19 -3 -9 -10 8 -20 9 -29 3 -22 -14 -27 -12 -35 12 -6 21
-8 21 -12 4 -3 -12 -8 -15 -12 -8 -4 7 -7 -4 -7 -22 0 -19 4 -32 8 -30 4 3 8
12 8 20 0 8 5 14 11 14 6 0 8 -9 4 -20 -8 -26 2 -25 25 2 10 13 22 19 27 14 4
-5 2 -11 -5 -13 -6 -3 -12 -10 -12 -17 0 -17 -35 -48 -43 -39 -13 12 -7 22 11
17 14 -5 15 -4 2 5 -22 15 -34 -3 -20 -30 10 -19 10 -22 0 -12 -7 7 -27 9 -47
6 -24 -4 -38 -1 -45 8 -7 10 -8 5 -3 -15 5 -26 4 -28 -9 -17 -11 10 -13 18 -6
31 6 10 7 26 4 35 -4 10 3 29 17 48 13 18 37 57 52 87 15 30 26 47 23 37 -4
-11 -2 -16 5 -12 5 4 9 14 7 23 -3 18 57 152 67 152 3 0 3 -5 -1 -12 -4 -7 -3
-8 5 -4 6 4 9 11 6 16 -3 5 4 25 15 44 11 20 19 37 18 39 -4 8 15 46 22 42 4
-3 11 2 14 11 4 10 2 13 -6 8 -7 -4 -2 6 10 23 12 17 22 35 22 41 0 22 107
232 115 225 4 -5 5 0 2 10 -4 11 2 36 15 60 12 23 22 44 23 47 0 3 15 41 32
85 97 248 141 430 153 623 4 73 12 138 18 145 8 10 24 48 74 180 6 15 8 30 5
34 -4 3 -9 -2 -12 -11 -15 -48 -19 -51 -23 -23 -2 15 -7 25 -12 22 -5 -3 -5
-16 0 -31 6 -14 10 -35 10 -47 -1 -15 -6 -9 -15 18 -8 22 -15 41 -15 43 0 1
-7 2 -16 2 -14 0 -14 -2 0 -22 22 -31 20 -45 -4 -23 -11 10 -20 25 -20 33 0
12 -4 11 -21 -4 -22 -19 -22 -19 -14 5 4 15 3 21 -3 17 -5 -3 -21 10 -36 28
-18 25 -22 36 -13 40 6 3 2 3 -10 0 -13 -3 -23 -1 -23 4 0 22 -158 94 -235
107 -22 4 -86 7 -142 7 -97 0 -107 -2 -178 -35 -41 -20 -75 -32 -75 -26 0 5
10 14 23 19 17 7 11 8 -24 5 -41 -3 -46 -1 -42 14 5 21 -24 54 -40 44 -6 -4
-8 0 -4 10 4 11 1 17 -7 17 -7 0 -18 12 -25 26 -6 15 -14 24 -17 21 -7 -7 32
-66 58 -87 10 -8 20 -25 23 -38 2 -12 7 -27 10 -32 10 -16 25 -12 19 5 -4 8
-1 15 5 15 17 0 13 -28 -6 -45 -84 -72 -104 -87 -109 -83 -3 3 9 17 26 31 16
14 30 30 30 36 0 6 8 7 18 4 15 -6 15 -5 4 10 -8 8 -20 13 -28 10 -8 -3 -14 1
-14 10 0 8 -34 45 -75 82 -41 37 -75 63 -75 58 0 -11 41 -53 76 -78 15 -11 36
-29 46 -40 18 -19 18 -20 -4 -37 -13 -9 -25 -14 -28 -11 -3 3 1 8 8 10 28 10
-1 53 -36 53 -29 0 -52 10 -52 23 0 7 4 7 12 -1 15 -15 38 -16 38 -2 0 6 -7
10 -15 10 -8 0 -15 5 -15 10 0 6 -37 10 -90 10 -73 0 -90 3 -90 15 0 10 11 15
35 15 42 0 112 34 94 46 -7 4 -15 2 -17 -4 -5 -15 -192 -17 -192 -2 0 6 -4 10
-10 10 -5 0 -10 -7 -10 -15 0 -8 5 -15 10 -15 6 0 10 -4 10 -10 0 -19 -31 -10
-55 16 -21 23 -25 24 -25 9 0 -10 -3 -15 -7 -11 -4 3 -15 -10 -25 -31 -14 -29
-15 -39 -6 -46 10 -6 9 -7 -2 -4 -8 2 -20 -3 -27 -12 -18 -23 -17 -5 6 114 41
211 81 335 201 630 166 408 251 639 245 663 -3 12 -9 21 -14 18 -4 -3 -38 25
-76 61 -61 61 -68 65 -78 47 -39 -71 -211 -342 -279 -441 l-83 -118 -6 225
c-4 124 -7 334 -8 467 l-1 241 -52 50 c-110 103 -455 400 -663 571 -49 40 -89
76 -89 79 2 6 84 54 154 89 19 10 38 22 41 27 4 5 12 5 19 1 8 -5 11 -4 6 3
-4 6 6 19 21 29 88 56 297 270 392 398 40 55 77 103 80 108 4 4 26 -6 48 -22
l41 -29 6 45 c3 25 6 70 6 99 0 47 10 72 84 216 142 275 257 590 345 948 68
278 96 427 165 865 48 301 96 926 111 1445 3 102 8 206 11 233 2 26 1 47 -4
47 -5 0 -29 -15 -54 -34 l-44 -34 -12 -273 c-28 -634 -69 -1044 -172 -1724
-44 -291 -121 -610 -215 -890 -57 -172 -165 -439 -173 -430 -11 11 66 391 113
565 15 52 29 105 32 117 5 21 -43 156 -99 282 -11 23 -35 84 -54 135 -19 50
-47 118 -61 151 -42 99 -50 117 -81 195 -16 41 -96 237 -177 435 -81 198 -165
405 -187 460 -22 55 -43 104 -48 108 -6 7 -86 -47 -166 -112 -11 -9 -126 -93
-163 -119 -63 -45 -58 -27 -71 -297 -27 -605 -78 -1606 -85 -1676 l-6 -56 83
-54 c178 -116 705 -486 742 -519 12 -12 -102 -155 -215 -271 -116 -119 -171
-161 -196 -153 -15 5 -15 4 -3 -5 13 -9 12 -12 -5 -25 -11 -9 -26 -13 -32 -11
-7 2 -12 0 -10 -4 2 -10 -53 -61 -66 -61 -4 0 -19 -11 -33 -24 -14 -13 -59
-40 -100 -60 l-75 -37 -92 71 c-51 38 -146 113 -212 165 -66 52 -177 137 -247
188 -70 50 -153 111 -185 135 -32 23 -80 58 -108 77 -27 20 -93 65 -145 102
-52 37 -178 123 -280 191 l-184 124 91 -98 c239 -260 448 -514 603 -731 96
-134 204 -303 197 -309 -4 -4 -111 17 -162 31 -11 3 -30 23 -42 45 -29 49 -97
105 -154 125 -24 9 -73 19 -108 22 -62 6 -67 9 -141 74 -163 144 -349 415
-440 641 l-23 57 51 86 c29 48 52 90 52 94 0 4 -21 22 -47 40 l-47 33 -36 -42
-36 -43 -27 79 c-81 247 -225 819 -213 851 3 7 10 13 16 13 6 0 24 16 41 35
17 19 39 37 50 40 10 4 19 15 19 25 0 14 5 18 18 13 16 -7 16 -6 -1 11 -21 21
-21 30 -2 46 11 10 18 9 30 -4 24 -23 35 -20 42 14 3 17 10 30 15 30 5 0 16 7
24 15 9 8 22 15 30 15 8 0 -4 -16 -26 -36 -22 -20 -38 -39 -35 -43 3 -3 9 -1
13 5 4 6 33 30 65 54 38 28 56 48 52 58 -6 15 21 41 44 42 8 0 4 -8 -10 -21
l-24 -21 25 16 c14 9 32 19 40 23 23 10 38 35 33 54 -5 18 28 36 46 25 5 -4
17 -3 26 0 12 5 14 14 10 35 -5 22 -3 29 9 29 9 0 16 5 16 10 0 6 8 10 18 10
13 0 10 -6 -13 -25 -19 -15 -24 -24 -15 -24 28 0 50 25 50 58 0 17 5 31 11 31
7 0 9 -10 5 -25 -8 -30 9 -33 24 -5 6 11 17 20 25 20 8 0 15 3 15 8 0 7 30 25
62 38 10 3 18 13 18 20 0 8 5 14 10 14 6 0 20 9 32 20 12 11 17 20 12 20 -6 0
-15 -5 -22 -12 -13 -13 -27 -5 -17 11 3 6 21 11 40 11 37 0 51 20 35 50 -14
27 -12 34 5 16 8 -8 15 -19 15 -25 0 -6 3 -11 8 -11 15 1 42 28 42 43 0 10 6
13 19 10 11 -3 21 2 24 11 4 9 11 16 17 16 10 0 39 21 77 57 13 13 24 22 26
21 1 -1 21 11 44 26 38 25 41 31 36 61 -4 27 -2 34 13 38 17 4 17 5 2 6 -10 0
-18 8 -18 17 0 13 9 15 45 12 25 -2 45 0 45 4 0 5 7 8 15 8 8 0 15 -4 15 -10
0 -5 -7 -10 -15 -10 -8 0 -15 -5 -15 -11 0 -5 -5 -7 -12 -3 -7 4 -8 3 -4 -4 4
-7 1 -12 -8 -12 -9 0 -16 -4 -16 -10 0 -5 -7 -10 -15 -10 -8 0 -15 -4 -15 -10
0 -15 6 -13 53 17 47 31 70 56 56 61 -5 2 -9 10 -9 17 0 7 -6 16 -12 18 -10 4
-10 6 0 6 6 1 21 -8 31 -18 18 -18 31 -18 31 1 0 5 -4 6 -10 3 -12 -8 -13 5
-1 23 7 11 9 11 14 -2 4 -9 12 -16 19 -15 10 0 10 2 0 6 -9 3 -4 10 13 19 15
8 31 12 35 9 4 -3 14 3 21 12 12 14 12 16 -1 11 -11 -4 -16 2 -17 23 -2 26 1
29 30 29 18 0 38 5 45 12 15 15 15 3 0 -25 -8 -16 -2 -13 23 10 19 18 43 39
54 47 17 13 18 15 3 16 -9 0 -23 -7 -32 -15 -17 -17 -26 -19 -26 -6 0 12 57
34 74 28 10 -4 12 0 9 14 -3 10 -9 19 -14 19 -5 0 -9 8 -8 18 0 14 3 13 16 -5
8 -13 22 -23 30 -23 13 0 13 2 2 16 -12 15 -11 16 9 10 18 -6 36 3 87 45 36
29 65 56 65 61 0 5 4 6 10 3 6 -4 10 6 10 22 0 21 3 24 10 13 5 -8 12 -11 16
-7 4 3 1 13 -6 22 -17 21 -6 30 13 10 21 -21 22 -20 68 25 22 22 34 40 27 40
-17 0 -58 -36 -58 -51 0 -6 -6 -9 -12 -6 -7 2 -12 14 -10 25 2 17 -2 22 -17
22 -14 0 -21 6 -21 20 0 17 7 20 48 20 26 0 54 -4 62 -10 9 -5 19 -5 26 1 7 5
16 9 20 8 19 -3 30 2 59 27 24 21 56 46 105 82 2 2 -2 8 -10 13 -12 9 -12 10
3 5 29 -9 67 36 67 79 0 33 14 48 22 23 3 -9 6 -9 12 0 4 7 2 12 -3 12 -6 0
-11 5 -11 10 0 6 15 10 34 10 35 0 62 21 53 43 -3 7 2 13 12 13 9 1 30 4 46 8
17 3 23 3 13 -1 -27 -13 -78 -62 -78 -76 0 -8 3 -9 8 -1 4 6 28 27 54 46 34
26 43 39 35 47 -15 15 0 26 17 12 11 -9 16 -9 21 0 4 6 1 15 -6 20 -7 4 -10
11 -6 16 5 4 12 1 16 -6 7 -11 14 -10 37 5 16 11 38 28 49 40 11 11 31 28 45
38 l25 18 -27 -5 c-15 -2 -25 0 -22 4 3 5 18 9 35 9 22 0 29 5 29 20 0 11 5
20 11 20 6 0 9 -7 6 -15 -4 -8 10 -3 32 13 22 15 39 29 39 32 -1 22 4 30 20
30 10 0 13 3 6 8 -6 4 -14 14 -17 22 -4 12 -6 12 -6 -2 -2 -30 -23 -67 -36
-62 -7 3 -11 14 -8 25 4 14 0 19 -16 19 -14 0 -21 6 -21 20 0 17 7 20 45 20
30 0 51 -6 63 -18 17 -17 19 -16 52 7 19 13 28 21 19 18 -13 -4 -16 7 -18 74
-2 68 0 79 15 79 9 0 24 -8 33 -18 9 -10 24 -21 33 -25 16 -6 16 -38 0 -35 -4
0 -16 0 -27 -1 -16 -1 -17 -3 -5 -11 8 -5 11 -12 7 -16 -3 -4 -13 -2 -20 4
-21 18 -29 1 -9 -18 18 -18 25 -15 87 48 12 12 25 22 29 22 6 0 36 23 62 48 8
7 14 27 14 43 0 39 20 59 59 59 16 0 33 5 37 11 4 8 9 7 15 -2 6 -11 12 -9 29
8 26 28 26 42 0 18 -18 -16 -20 -16 -26 -1 -4 11 -13 14 -30 10 -15 -4 -24 -2
-24 5 0 7 17 11 43 10 23 -1 53 1 67 5 20 6 22 5 10 -4 -13 -10 -13 -11 0 -7
15 4 16 12 5 57 -5 23 -5 23 4 4 5 -12 15 -25 21 -29 11 -7 78 38 93 62 4 7
13 13 19 13 6 0 30 16 53 35 23 19 46 31 50 27 5 -4 5 1 2 11 -4 11 -3 16 3
12 10 -6 59 24 60 37 0 4 -16 10 -35 14 -33 6 -35 9 -35 44 0 21 -6 41 -12 44
-7 3 1 2 17 -1 17 -3 38 -16 49 -27 13 -14 20 -17 23 -9 3 9 11 7 25 -7 23
-21 46 -17 28 5 -9 11 -6 16 11 25 19 11 21 10 16 -3 -4 -11 -2 -14 8 -10 8 3
12 10 9 15 -4 6 2 8 17 3 19 -5 21 -4 9 4 -13 9 -13 11 3 11 13 0 17 8 17 33
0 42 15 57 57 57 20 0 36 6 42 17 5 10 13 15 17 11 4 -4 1 -14 -6 -23 -19 -22
2 -18 41 8 20 14 33 30 31 40 -2 11 4 17 17 17 20 0 104 40 109 53 2 4 11 7
20 8 11 0 13 2 4 6 -7 3 -24 -3 -38 -12 -26 -17 -41 -15 -29 4 3 6 15 11 26
11 11 0 23 10 29 24 12 32 25 39 40 21 7 -8 19 -15 27 -15 9 0 5 8 -11 23
l-25 24 44 0 c38 0 42 -2 27 -13 -25 -18 -10 -26 16 -8 12 8 20 20 17 25 -4 5
1 9 9 9 11 0 16 10 16 33 0 43 15 57 62 57 37 0 38 1 38 36 l0 36 38 -7 c44
-8 38 -8 88 -6 l40 1 0 48 -1 47 38 3 c26 2 37 -1 35 -10 -4 -16 -24 -38 -36
-38 -5 0 -15 -7 -22 -15 -17 -20 7 -20 34 0 10 8 23 12 27 9 5 -3 6 1 3 9 -7
18 16 34 25 18 5 -7 15 -4 31 11 14 13 26 22 27 21 7 -4 43 11 43 18 0 12 -17
11 -25 -1 -9 -14 -25 -12 -25 3 0 13 99 47 135 47 8 0 15 5 15 11 0 5 5 7 12
3 7 -4 8 -3 4 5 -4 6 -2 18 4 26 9 11 10 15 1 15 -8 0 -11 16 -9 48 l3 47 40
-3 c38 -3 76 -22 45 -22 -11 0 -10 -4 3 -17 17 -17 19 -17 32 2 8 11 19 25 25
32 5 7 10 29 10 49 l0 37 53 -5 c28 -3 46 -3 40 -1 -8 3 -13 21 -13 43 0 35
-3 39 -27 43 -16 2 -5 3 22 0 36 -2 46 -1 35 7 -12 8 -9 10 13 10 15 0 27 -4
27 -10 0 -5 20 -10 45 -10 l45 0 0 40 0 40 40 0 c39 0 40 1 40 35 0 34 -1 35
-39 35 -22 0 -41 -4 -43 -9 -1 -4 -14 -11 -28 -15 l-25 -7 25 20 c14 11 36 23
50 26 14 4 39 13 55 20 43 19 123 45 141 45 8 0 27 6 42 14 15 7 40 16 56 20
24 6 27 4 22 -9 -3 -9 -2 -35 3 -58 24 -108 42 -291 36 -365 l-7 -78 -132 -49
c-152 -56 -396 -164 -396 -175 0 -11 228 -67 435 -108 l90 -18 6 -414 c7 -435
16 -527 49 -494 24 24 32 130 37 499 l5 390 28 -135 c106 -519 252 -922 451
-1242 179 -289 401 -485 636 -562 37 -12 53 -23 56 -39 3 -12 9 -119 12 -237
6 -224 11 -270 25 -270 17 0 29 76 40 260 6 102 15 189 20 194 12 12 11 31 13
-409 1 -192 6 -358 11 -367 7 -15 31 -25 38 -15 1 1 4 142 7 314 6 320 12 365
42 312 10 -17 14 -78 16 -218 2 -195 5 -221 22 -221 15 0 20 77 26 365 l6 270
117 7 c124 6 178 16 282 50 403 130 723 550 989 1297 23 63 45 117 50 120 23
15 116 152 151 222 70 138 109 277 125 447 7 69 9 73 29 68 43 -10 222 -44
266 -50 l46 -7 36 -127 c198 -700 603 -1139 1162 -1260 115 -24 333 -21 438 6
344 92 563 316 720 737 43 116 71 201 117 365 23 80 47 158 53 173 l11 28 31
-58 c84 -157 220 -320 346 -415 119 -91 281 -157 423 -174 49 -6 57 -10 57
-28 2 -111 20 -435 25 -448 4 -10 11 -18 16 -18 21 0 32 88 35 280 l4 205 69
7 c302 31 571 274 777 703 36 74 70 135 75 135 6 0 8 4 5 8 -4 7 22 84 86 255
8 22 17 27 42 27 66 0 388 46 601 86 110 21 313 70 415 101 47 14 114 33 150
43 84 24 240 77 262 90 10 6 24 10 32 10 8 0 16 5 18 12 3 7 38 -48 78 -122
192 -351 299 -504 525 -749 46 -50 210 -194 305 -268 313 -243 716 -419 1106
-483 l71 -11 -13 -59 c-22 -91 -33 -325 -29 -555 5 -224 18 -348 41 -404 32
-75 38 -28 64 504 12 247 31 480 39 492 3 4 88 4 188 -1 l181 -9 6 -26 c111
-529 376 -1844 372 -1848 -2 -2 -39 15 -82 38 -100 54 -1188 598 -1354 677
-69 33 -192 92 -275 131 -82 39 -163 79 -178 87 -15 9 -35 13 -43 10 -9 -3
-12 -1 -9 4 4 6 -13 19 -37 29 -60 26 -282 132 -415 198 -111 55 -113 56 -133
38 -12 -10 -18 -25 -15 -32 3 -8 0 -11 -6 -8 -13 9 -50 -25 -42 -38 3 -5 2 -7
-3 -4 -6 3 -16 1 -24 -4 -13 -8 -12 -12 4 -24 11 -8 28 -15 39 -15 11 0 15 -4
11 -12 -5 -8 0 -9 14 -6 12 4 20 3 17 -2 -4 -6 168 -114 185 -115 3 0 25 -13
50 -29 25 -15 55 -35 68 -43 12 -7 28 -11 34 -7 6 4 8 3 4 -4 -3 -6 6 -17 21
-25 70 -36 219 -124 373 -222 62 -39 238 -149 298 -185 183 -112 586 -383 827
-555 279 -199 569 -427 797 -625 27 -23 32 -40 68 -225 196 -1001 494 -2561
579 -3030 22 -121 47 -258 56 -303 9 -46 15 -87 13 -91 -2 -4 -76 40 -165 98
-89 58 -177 115 -195 126 -190 113 -356 198 -373 191 -7 -2 -39 -50 -70 -105
l-57 -101 39 -43 c21 -24 74 -84 118 -133 44 -49 103 -116 130 -148 28 -32 55
-63 60 -70 62 -71 85 -98 113 -133 18 -23 44 -54 58 -70 140 -159 533 -716
559 -791 12 -35 35 -145 31 -149 -1 -1 -26 39 -56 90 -131 221 -324 487 -446
615 -13 13 30 -82 95 -210 64 -128 147 -303 185 -388 37 -85 74 -168 81 -185
95 -214 285 -743 374 -1040 136 -456 279 -1115 297 -1366 2 -35 7 -77 10 -94
5 -29 4 -29 -11 -10 -10 12 -14 30 -10 45 4 19 3 21 -5 10 -5 -8 -10 -33 -10
-55 -1 -32 -3 -37 -11 -22 -7 11 -22 17 -49 17 -38 0 -40 -2 -40 -30 0 -28 -2
-30 -40 -30 -22 0 -40 -4 -40 -10 0 -15 -49 -12 -66 4 -10 11 -14 43 -14 128
0 269 -53 528 -168 833 -28 75 -44 113 -94 225 -11 25 -24 54 -28 65 -50 119
-51 120 -61 105 -7 -11 -8 -7 -3 14 5 22 4 27 -6 21 -8 -5 -11 -4 -6 3 10 16
-56 149 -73 145 -5 -1 -12 4 -15 12 -3 9 0 12 10 8 15 -6 12 9 -13 57 -9 18
-13 20 -13 8 0 -10 -6 -18 -14 -18 -8 0 -17 -6 -20 -12 -5 -10 -7 -10 -12 0
-7 15 -204 17 -204 2 0 -6 -66 -10 -179 -10 -134 0 -180 -3 -183 -12 -5 -15
-38 13 -38 32 0 6 -4 9 -9 5 -5 -3 -11 0 -14 7 -2 7 -2 0 1 -16 2 -15 -1 -39
-8 -51 -11 -20 -3 -49 58 -227 39 -112 81 -226 93 -254 11 -27 46 -110 76
-184 30 -74 75 -177 99 -228 24 -52 44 -96 44 -98 0 -2 31 -68 68 -147 38 -78
70 -146 71 -152 9 -30 27 -48 79 -75 l57 -29 -50 -1 c-64 0 -144 -22 -192 -51
-21 -13 -67 -51 -103 -84 -71 -67 -147 -128 -234 -190 -282 -198 -434 -322
-551 -451 -49 -54 -122 -133 -161 -174 -40 -41 -84 -90 -99 -108 -52 -63 -109
-113 -122 -108 -7 3 -13 1 -13 -4 0 -5 8 -11 18 -13 10 -3 5 -5 -13 -7 -27 -1
-28 -2 -10 -11 16 -7 14 -9 -12 -6 -23 3 -30 0 -23 -8 5 -6 46 -12 92 -13 344
-11 2110 -81 2659 -107 838 -38 1560 -75 1605 -81 39 -4 59 -22 280 -244 257
-257 294 -296 286 -304 -3 -3 4 -9 14 -13 10 -4 30 -20 44 -37 14 -17 33 -37
43 -45 9 -9 17 -22 17 -31 0 -13 -1 -13 -10 0 -8 12 -10 10 -10 -9 0 -19 4
-22 22 -18 23 6 33 -2 102 -86 21 -26 34 -47 28 -47 -6 0 -17 10 -23 22 -19
35 -36 49 -53 42 -11 -4 -13 0 -9 15 3 12 1 21 -6 21 -6 0 -11 -7 -11 -16 0
-15 -2 -15 -25 0 -22 14 -136 16 -1215 16 -968 0 -1190 2 -1190 13 0 8 -14 14
-35 15 -41 3 -64 -6 -45 -18 6 -4 -44 -7 -112 -8 -68 -1 -117 1 -110 4 19 9
14 24 -8 24 -11 0 -20 -7 -20 -15 0 -11 -11 -15 -42 -13 l-43 1 38 4 c69 8 38
21 -48 22 -74 0 -83 -2 -71 -15 8 -8 23 -14 33 -14 11 0 28 -7 39 -16 10 -8
14 -13 7 -10 -6 4 -13 1 -15 -6 -3 -8 -11 -7 -28 5 -26 18 -65 23 -55 7 3 -5
2 -10 -4 -10 -5 0 -13 5 -16 10 -4 6 -23 8 -43 6 -31 -5 -33 -4 -12 4 18 7 6
8 -45 5 -49 -3 -61 -2 -40 4 17 5 46 10 65 11 30 2 28 4 -20 12 -64 11 -163 0
-120 -13 17 -5 9 -6 -25 -4 -64 5 -66 6 -30 16 21 6 11 7 -35 4 -57 -4 -193 3
-400 20 -36 3 -87 7 -114 7 l-49 2 33 11 c25 9 30 13 18 18 -9 3 -18 2 -20 -3
-2 -5 -30 -12 -63 -14 l-60 -5 60 14 60 14 -80 -5 c-173 -10 -270 -11 -250 -3
16 7 14 8 -10 5 -16 -3 -43 -8 -59 -12 -19 -5 -31 -2 -37 7 -7 12 -9 12 -9 0
0 -9 -7 -11 -22 -7 -13 4 -99 9 -193 11 -229 7 -360 14 -382 21 -15 5 -15 4
-3 -5 8 -6 33 -11 54 -11 22 0 37 -2 35 -5 -3 -2 -77 -7 -164 -10 -88 -3 -178
-7 -200 -10 -27 -3 -33 -2 -20 3 13 6 -9 11 -73 16 -102 7 -155 -5 -92 -22 33
-8 31 -9 -24 -10 -32 0 -71 4 -85 10 -26 10 -84 15 -461 43 -107 8 -253 19
-325 25 -71 7 -173 15 -225 19 -245 21 -1876 121 -2125 131 -154 6 -292 13
-307 16 -29 6 -49 -13 -24 -22 9 -3 16 -14 16 -25 0 -10 7 -22 16 -27 8 -5 21
-18 27 -29 7 -12 22 -35 35 -52 l23 -31 -31 0 c-18 0 -33 6 -36 15 -9 22 -324
22 -324 0 0 -11 -11 -15 -40 -15 -29 0 -40 4 -40 15 0 11 -11 15 -40 15 -29 0
-40 -4 -40 -15 0 -11 -11 -15 -40 -15 -29 0 -40 4 -40 15 0 12 -16 15 -80 15
-64 0 -80 -3 -80 -15 0 -12 16 -15 80 -15 64 0 80 -3 80 -15 0 -12 -16 -15
-80 -15 -47 0 -80 -4 -80 -10 0 -5 -18 -10 -40 -10 -29 0 -40 -4 -40 -15 0
-12 -20 -15 -120 -15 -100 0 -120 -2 -120 -15 0 -13 -29 -15 -200 -15 -171 0
-200 2 -200 15 0 12 -16 15 -80 15 -64 0 -80 -3 -80 -15 0 -13 -29 -15 -200
-15 l-200 0 0 -25 c0 -22 -4 -25 -40 -25 -29 0 -40 4 -40 15 0 13 -51 15 -400
15 -349 0 -400 -2 -400 -15 0 -11 11 -15 40 -15 29 0 40 -4 40 -15 0 -11 -11
-15 -40 -15 -22 0 -40 -4 -40 -10 0 -5 -18 -10 -40 -10 -29 0 -40 -4 -40 -15
0 -13 -24 -15 -160 -15 -136 0 -160 2 -160 15 0 13 -24 15 -160 15 -136 0
-160 -2 -160 -15 0 -12 -16 -15 -80 -15 -64 0 -80 -3 -80 -15 0 -13 -29 -15
-200 -15 l-200 0 0 -25 c0 -22 4 -25 40 -25 29 0 40 -4 40 -15 0 -11 -11 -15
-40 -15 -29 0 -40 4 -40 15 0 11 -11 15 -40 15 -29 0 -40 -4 -40 -15 0 -13
-42 -15 -320 -15 -278 0 -320 2 -320 15 0 13 38 15 280 15 242 0 280 2 280 15
0 13 -42 15 -320 15 l-320 0 0 -40 0 -40 -40 0 c-29 0 -40 -4 -40 -15 0 -11
-11 -15 -40 -15 -29 0 -40 -4 -40 -15 0 -13 -47 -15 -360 -15 l-360 0 0 -25
c0 -22 -4 -25 -40 -25 -22 0 -40 -4 -40 -10 0 -6 -60 -10 -160 -10 l-160 0 0
-30 c0 -29 -2 -30 -44 -30 -38 0 -45 3 -49 22 -4 23 -4 23 -15 -2 -8 -20 -11
-21 -11 -7 -1 11 -10 31 -20 46 -11 15 -22 43 -26 64 -4 20 -11 37 -16 37 -5
0 -9 6 -9 14 0 8 -12 38 -26 68 -15 29 -30 62 -34 73 -4 11 -15 37 -24 58 -9
20 -23 54 -32 75 -9 20 -31 69 -50 107 -18 39 -36 82 -40 97 -7 31 -32 56 -42
42 -4 -5 -67 -11 -141 -12 -104 -3 -136 -1 -142 10 -7 10 -9 9 -9 -4 0 -11 -5
-15 -14 -12 -9 4 -16 -3 -19 -18 -3 -17 -5 -13 -6 12 l-2 35 -13 -25 c-8 -14
-12 -28 -10 -32 3 -5 1 -8 -4 -8 -6 0 -13 -12 -17 -27 -24 -97 -260 -539 -354
-663 -14 -19 -48 -66 -73 -105 -49 -72 -85 -119 -177 -227 -29 -34 -72 -85
-95 -112 -134 -160 -240 -272 -514 -544 -168 -166 -306 -302 -307 -302 -1 0
-2 19 -3 42 -1 23 -5 51 -9 63 -6 17 -8 14 -13 -15 -3 -19 -1 -38 3 -41 5 -4
5 -15 -2 -25 -10 -18 -10 -18 -11 4 0 12 -6 22 -12 22 -10 0 -10 2 0 9 9 6 11
19 7 45 -6 29 -4 36 9 36 9 0 16 8 16 19 0 25 -20 38 -20 14 -1 -17 -2 -17
-16 2 -9 12 -12 30 -8 47 5 27 5 28 -40 28 -42 0 -46 2 -46 25 0 23 -4 25 -40
25 -29 0 -40 4 -40 15 0 12 -16 15 -80 15 -78 0 -80 1 -80 24 0 51 -7 56 -86
56 -43 0 -74 4 -74 10 0 6 -18 10 -40 10 -36 0 -40 2 -40 26 0 22 -2 24 -15
14 -8 -7 -25 -10 -39 -6 -23 6 -23 4 -18 -39 3 -27 1 -45 -5 -45 -6 0 -8 11
-6 24 3 13 1 31 -4 40 -7 14 -13 9 -32 -24 -12 -22 -18 -40 -13 -40 5 0 15 12
22 27 8 17 14 23 17 15 6 -16 -22 -49 -49 -58 -13 -4 -17 -11 -13 -22 3 -9 3
-13 -1 -9 -8 8 -69 -91 -118 -193 -17 -36 -33 -67 -36 -70 -8 -8 -143 -290
-203 -425 -205 -460 -363 -931 -508 -1510 -16 -66 -32 -128 -35 -137 -5 -17
16 -18 353 -18 l358 1 130 127 c402 393 826 734 1320 1063 124 82 363 230 443
275 194 107 372 204 376 204 2 0 55 24 118 54 139 66 193 91 283 128 95 40
374 144 408 152 15 3 27 12 27 19 0 8 14 20 32 28 26 13 29 17 14 22 -9 4 -15
3 -12 -2 3 -5 -3 -11 -14 -14 -13 -3 -20 0 -20 9 0 19 -2 18 -100 -15 -165
-56 -187 -64 -350 -128 -168 -67 -220 -90 -438 -195 -68 -32 -127 -56 -133
-53 -5 4 -8 1 -7 -6 2 -6 -3 -14 -11 -17 -8 -3 -11 0 -7 7 4 6 2 11 -3 11 -6
0 -11 -7 -11 -16 0 -8 -4 -13 -9 -10 -5 3 -14 -1 -21 -9 -14 -17 -30 -20 -30
-5 0 6 7 10 15 10 8 0 15 5 15 10 0 6 -7 10 -15 10 -8 0 -15 5 -15 11 0 6 -9
9 -20 6 -18 -5 -20 0 -21 41 -1 26 0 64 1 84 2 38 2 38 -39 38 l-41 0 0 40 0
40 -40 0 -40 0 0 40 0 40 -40 0 c-39 0 -40 1 -40 35 0 27 -4 35 -17 35 -10 0
-24 4 -32 9 -12 8 -13 12 -2 25 8 9 21 15 30 14 10 -2 16 5 17 19 1 13 -2 23
-7 23 -4 0 -16 3 -26 6 -15 5 -15 4 -3 -5 8 -6 11 -11 5 -11 -5 0 -3 -5 5 -11
12 -8 10 -9 -8 -4 -18 5 -22 2 -22 -14 0 -12 -5 -21 -11 -21 -6 0 -8 -7 -5
-16 3 -8 2 -12 -4 -9 -5 3 -38 6 -73 6 -56 1 -67 -3 -93 -28 -17 -15 -44 -35
-60 -43 -16 -8 -46 -32 -67 -52 -21 -21 -44 -38 -51 -38 -7 0 -27 -12 -44 -27
-53 -47 -76 -63 -87 -63 -7 0 -20 -9 -30 -20 -10 -11 -27 -20 -37 -20 -11 0
-17 -4 -14 -9 8 -13 -21 -22 -43 -13 -19 7 -19 8 5 31 21 20 24 21 24 5 0 -14
3 -15 12 -6 9 9 7 16 -7 32 -17 18 -17 20 -2 14 12 -4 16 -2 14 7 -2 8 -2 11
0 7 8 -13 25 -9 20 4 -3 8 5 14 21 15 18 1 21 -1 11 -8 -12 -8 -12 -10 1 -19
8 -5 20 -10 25 -10 6 0 4 4 -3 8 -7 5 -10 16 -6 25 3 10 0 25 -7 35 -7 9 -10
14 -5 10 5 -4 18 4 28 18 14 17 26 23 39 19 18 -6 21 -3 23 28 2 20 68 61 76
47 5 -9 9 -9 14 -1 4 6 2 11 -3 11 -6 0 -11 5 -11 10 0 6 5 10 11 10 7 0 17 6
23 14 33 42 683 496 710 496 3 0 43 22 88 49 265 156 645 322 948 414 113 35
334 87 365 87 14 0 25 4 25 9 0 5 9 7 20 4 11 -3 31 2 45 11 13 9 30 16 37 15
7 0 4 -5 -7 -10 -15 -7 -13 -8 10 -3 55 12 108 14 398 18 182 2 287 -1 287 -7
0 -5 19 -7 45 -5 24 3 43 3 41 -1 -3 -4 3 -7 12 -7 26 -1 88 -11 177 -30 44
-10 92 -18 107 -18 14 -1 24 -4 22 -7 -2 -3 21 -11 50 -18 70 -16 209 -71 310
-123 361 -185 476 -499 306 -840 -63 -126 -106 -184 -225 -306 -156 -161 -365
-315 -614 -453 -356 -197 -922 -398 -1374 -489 -78 -16 -103 -17 -120 -8 -19
10 -20 9 -10 -3 10 -12 9 -15 -5 -17 -39 -4 -81 -13 -152 -30 -42 -10 -81 -17
-88 -14 -7 2 -18 0 -25 -6 -7 -5 -21 -12 -31 -16 -15 -5 -17 -4 -7 8 9 11 8
15 -5 20 -23 9 -31 7 -14 -4 12 -8 11 -10 -7 -10 -12 0 -25 5 -29 11 -3 6 -18
8 -33 5 -19 -5 -22 -4 -11 4 8 5 32 10 53 10 l37 0 0 75 0 75 -40 0 -40 0 0
40 0 40 -40 0 -40 0 0 40 0 40 -40 0 -40 0 0 40 c0 40 0 40 -39 40 l-38 0 -7
80 -7 80 -35 0 c-33 0 -34 1 -34 38 l0 37 -47 2 c-27 1 -75 3 -108 4 -47 1
-55 3 -37 10 13 5 28 7 32 4 5 -3 10 0 12 6 3 9 10 9 27 0 34 -19 50 -7 16 13
l-30 17 28 -6 c16 -3 27 -1 27 5 0 6 -4 9 -9 6 -5 -4 -11 -1 -13 5 -2 6 -15 2
-31 -11 -15 -12 -27 -19 -27 -16 0 7 -82 -33 -90 -43 -3 -3 -26 -17 -52 -30
-51 -26 -62 -37 -26 -25 13 3 20 3 16 -1 -4 -4 -23 -9 -41 -10 -19 -2 -54 -16
-78 -33 -24 -16 -84 -53 -134 -82 -49 -29 -184 -116 -300 -193 -455 -303 -826
-602 -1225 -984 l-75 -73 10811 0 10811 0 16 42 c8 24 47 129 86 233 39 105
78 215 87 245 9 30 20 63 25 72 15 28 11 36 -16 30 -15 -2 -25 0 -25 7 0 6 11
11 25 11 20 0 25 5 25 25 0 23 -4 25 -40 25 -38 0 -40 2 -40 30 l0 30 -80 0
c-47 0 -80 4 -80 10 0 6 -60 10 -159 10 l-158 0 -6 30 -6 30 -161 0 c-100 0
-160 4 -160 10 0 6 -16 10 -35 10 -32 0 -35 2 -35 30 l0 30 -80 0 c-47 0 -80
4 -80 10 0 6 -18 10 -40 10 -31 0 -40 -4 -40 -17 0 -10 -3 -29 -6 -43 -4 -20
-3 -22 5 -10 13 18 14 1 1 -20 -7 -12 -11 -10 -18 10 -6 16 -6 27 0 31 5 4 8
17 6 30 -2 18 -9 8 -27 -41 -13 -36 -27 -67 -30 -70 -4 -3 -13 -29 -20 -59 -7
-29 -20 -65 -27 -80 -8 -14 -14 -33 -14 -41 0 -9 -4 -20 -8 -25 -5 -6 -28 -62
-52 -125 -23 -63 -59 -149 -78 -190 -29 -62 -36 -72 -43 -55 -5 13 -7 5 -5
-25 2 -25 2 -37 -1 -27 -4 14 -17 17 -84 17 -43 0 -79 4 -79 9 0 5 -38 11 -85
13 l-85 3 0 -27 c0 -16 -5 -28 -11 -28 -7 0 -10 17 -8 44 2 25 0 42 -5 38 -5
-3 -6 9 -2 29 4 19 8 39 9 44 2 6 8 24 14 40 13 36 96 294 146 455 32 103 62
239 38 170 -6 -17 -9 -20 -10 -7 -1 9 -7 17 -13 17 -9 0 -8 4 2 10 12 8 11 10
-7 10 -13 0 -23 -5 -23 -11 0 -7 -10 -9 -26 -6 -23 4 -25 2 -20 -27 3 -17 3
-25 0 -18 -3 6 -9 12 -14 12 -8 0 -50 -60 -85 -121 -66 -115 -278 -455 -302
-484 -18 -22 -59 -91 -68 -116 -10 -26 -11 -27 -35 -13 -22 13 -22 14 -3 9 23
-6 27 -3 36 36 6 25 6 25 -43 19 -54 -7 -92 5 -69 22 11 8 10 8 -4 4 -10 -3
-26 -6 -35 -6 -9 -1 3 -12 28 -25 63 -34 45 -31 -31 5 -35 16 -52 27 -36 24
23 -5 27 -3 27 15 0 20 -5 22 -52 20 -37 -1 -66 4 -98 20 -25 12 -36 19 -25
16 11 -3 16 -3 12 2 -5 4 -23 8 -40 9 -17 1 -33 7 -35 13 -2 6 -10 11 -17 11
-16 0 -64 39 -48 40 6 0 15 -5 18 -10 3 -6 11 -10 17 -10 7 0 7 4 -1 13 -6 8
-7 18 -3 22 4 5 0 6 -9 2 -15 -5 -16 -2 -4 31 14 40 85 264 110 347 57 192 73
261 64 277 -12 22 -29 24 -29 3 0 -8 -4 -15 -10 -15 -5 0 -10 6 -10 13 0 11
-28 16 -110 21 -104 6 -120 4 -160 -22 -2 -2 2 -8 10 -13 11 -8 10 -9 -7 -4
-13 3 -23 3 -23 -2 0 -4 -17 -26 -36 -48 -20 -22 -50 -59 -66 -82 -16 -24 -33
-43 -38 -43 -6 0 -10 -6 -10 -14 0 -8 -4 -16 -8 -18 -4 -1 -23 -23 -42 -48
-46 -58 -77 -96 -120 -143 l-35 -39 -115 52 c-63 29 -137 62 -165 75 -27 13
-75 33 -105 45 -30 12 -70 29 -88 37 l-33 16 68 61 c72 66 152 146 234 234 42
46 52 63 54 96 2 23 1 35 -2 29 -3 -10 -37 -13 -123 -13 -127 0 -130 1 -130
56 0 23 -2 24 -75 24 -43 0 -75 4 -75 10 0 6 -60 10 -159 10 l-159 0 -6 30 -6
30 -160 0 c-100 0 -160 4 -160 10 0 6 -16 10 -35 10 -32 0 -35 2 -35 30 l0 30
-80 0 c-47 0 -80 4 -80 10 0 6 -60 10 -159 10 -126 0 -160 3 -164 14 -3 8 -17
13 -37 11 -22 -2 -35 3 -43 16 -8 12 -23 19 -44 19 -18 0 -33 5 -33 10 0 6
-47 10 -120 10 l-120 0 0 30 0 30 -80 0 c-47 0 -80 4 -80 10 0 6 -33 10 -80
10 -47 0 -80 -4 -80 -10 0 -6 -33 -10 -80 -10 -47 0 -80 4 -80 10 0 6 -18 10
-40 10 -23 0 -40 -5 -40 -11 0 -6 -7 -9 -15 -6 -8 4 -17 2 -20 -3 -8 -12 -25
-13 -25 -2 0 12 70 32 109 32 17 0 31 5 31 11 0 8 -14 10 -42 6 -69 -10 -76
-12 -103 -35 -14 -12 -31 -22 -38 -22 -7 0 -82 20 -167 44 -151 42 -155 44
-153 70 1 17 -3 26 -13 26 -8 0 -12 -5 -9 -10 3 -6 -4 -10 -17 -11 -22 0 -22
-1 -3 -9 23 -10 5 -13 -20 -3 -15 5 -14 8 6 19 13 7 18 13 12 14 -7 0 -13 7
-13 15 0 12 -14 15 -70 15 -69 0 -124 15 -114 31 3 5 -4 9 -16 9 -12 0 -18 -5
-15 -10 9 -14 0 -13 -83 10 -39 11 -80 20 -89 19 -10 0 11 -9 47 -19 82 -23
68 -25 -30 -5 -108 23 -193 46 -205 58 -6 6 -3 7 10 4 57 -15 85 -18 85 -8 0
6 -8 11 -17 11 -15 0 -16 2 -4 9 26 17 -34 24 -140 18 -55 -3 -97 -2 -94 2 7
12 -47 33 -57 23 -9 -9 -71 1 -113 18 -11 5 -60 16 -110 25 -49 9 -98 21 -109
27 -10 5 -35 11 -55 13 -54 6 -574 135 -585 146 -6 5 -21 9 -35 9 -48 0 -521
122 -514 133 3 6 1 7 -5 3 -12 -7 -18 -5 -222 48 -74 20 -144 36 -155 36 -12
0 -25 4 -30 9 -6 4 -42 16 -82 26 -40 10 -70 22 -67 27 3 4 -1 5 -9 2 -13 -4
-91 12 -172 36 -16 5 -73 20 -125 34 -112 31 -182 50 -270 77 -36 10 -103 30
-150 43 -47 13 -107 31 -135 40 -27 8 -111 34 -185 57 -74 22 -189 59 -255 80
-66 21 -124 39 -129 39 -4 0 -22 6 -39 14 -18 8 -119 42 -224 76 -106 34 -193
63 -193 66 0 10 217 106 314 138 226 76 422 106 747 113 341 8 637 -16 1154
-91 94 -14 311 -46 483 -71 172 -25 394 -55 495 -66 231 -26 694 -37 864 -19
282 28 614 101 1023 224 372 112 579 169 710 197 25 5 53 14 63 20 10 5 21 8
25 5 4 -2 27 0 52 6 101 22 187 28 420 31 275 2 433 -4 416 -16 -6 -5 2 -6 20
-3 17 3 36 0 43 -7 6 -6 11 -8 11 -4 0 3 11 2 25 -3 14 -5 36 -12 48 -14 12
-3 57 -15 100 -26 43 -11 88 -18 100 -15 15 4 18 3 9 -3 -9 -6 8 -14 55 -26
86 -22 113 -33 113 -46 0 -5 -9 -33 -21 -62 -11 -29 -37 -100 -59 -158 -63
-174 -256 -645 -326 -798 -19 -41 -34 -75 -34 -78 0 -7 -177 -358 -199 -394
-11 -19 -28 -51 -37 -70 -9 -19 -32 -56 -51 -82 -19 -26 -33 -56 -31 -65 3
-13 14 -3 45 38 23 31 48 62 55 70 8 8 40 48 70 89 31 41 98 127 148 190 284
358 446 571 543 712 155 226 257 380 257 389 0 5 3 9 8 9 4 0 19 20 32 45 18
32 29 43 40 39 72 -31 113 -43 122 -38 6 4 8 3 5 -3 -8 -12 59 -37 74 -27 8 4
9 3 5 -4 -4 -7 -1 -12 7 -12 7 0 37 -12 66 -26 30 -14 60 -23 68 -20 8 3 11 2
8 -3 -3 -5 5 -13 17 -17 40 -12 358 -168 488 -239 530 -287 1068 -662 1630
-1134 127 -107 432 -371 461 -400 9 -9 58 -54 110 -101 87 -78 184 -169 317
-294 l52 -50 0 1436 0 1437 -166 3 -166 3 6 -27 c3 -17 1 -28 -6 -28 -7 0 -9
23 -5 72 l5 73 -12 -70 -11 -70 -14 95 c-7 52 -17 111 -22 130 -29 121 -40
161 -55 210 -25 84 -29 121 -13 118 8 -2 16 -6 19 -9 9 -10 122 -20 116 -10
-4 5 -1 13 5 17 7 4 9 3 6 -3 -8 -12 32 -22 118 -30 110 -10 195 -7 195 6 0 6
-15 8 -32 5 -18 -3 -53 -1 -78 4 -39 9 -41 10 -13 11 17 1 40 4 50 7 15 5 15
4 3 -5 -12 -9 -10 -11 12 -11 14 0 33 3 42 6 15 6 16 324 16 3499 l0 3493 -94
96 c-94 96 -123 118 -91 70 16 -25 16 -26 -5 -19 -16 5 -20 4 -15 -5 4 -6 17
-9 30 -6 16 4 25 1 29 -10 8 -21 7 -31 -2 -18 -4 7 -15 8 -27 3 -11 -4 -14 -8
-7 -8 38 -2 -17 -40 -61 -42 -20 0 -21 -1 -3 -8 14 -5 16 -10 8 -15 -7 -4 -22
0 -34 8 -14 10 -44 16 -75 16 l-53 0 0 40 0 40 40 0 c29 0 40 4 40 15 0 11
-11 15 -40 15 -29 0 -40 -4 -40 -15 0 -12 -15 -15 -75 -15 l-75 0 6 28 c9 36
13 43 27 40 7 -2 12 2 12 7 0 6 -4 9 -10 7 -11 -4 30 44 60 69 68 57 95 91 86
107 -11 21 -351 355 -481 473 -52 48 -115 105 -140 127 -25 23 -48 42 -51 42
-3 0 -14 -8 -25 -17 -10 -10 -44 -38 -74 -63 -173 -140 -410 -362 -744 -696
-122 -121 -284 -287 -362 -368 l-141 -147 -71 71 c-40 39 -72 74 -72 77 0 3
21 29 48 57 61 67 223 242 258 281 108 119 275 298 421 451 26 28 109 116 183
195 74 79 180 190 235 247 55 57 101 107 103 111 1 4 -4 14 -12 20 -12 10 -26
5 -74 -28 -33 -22 -66 -46 -73 -53 -8 -8 -61 -54 -119 -103 -173 -147 -470
-442 -684 -679 -39 -43 -75 -84 -81 -90 -5 -6 -39 -45 -75 -86 -36 -41 -67
-77 -70 -80 -3 -3 -25 -30 -50 -60 -25 -30 -53 -64 -62 -74 -10 -11 -18 -24
-18 -30 0 -6 -24 12 -52 40 -29 28 -69 55 -88 61 -19 6 -107 36 -195 68 -402
142 -974 308 -1410 408 -375 87 -821 174 -832 163 -13 -13 411 -417 598 -571
125 -102 283 -222 424 -320 121 -85 318 -205 334 -205 9 1 26 6 38 13 18 10
288 243 329 284 8 8 14 11 14 6 0 -4 -61 -125 -136 -268 l-135 -260 73 -68
c177 -167 382 -328 572 -452 142 -93 414 -245 436 -245 8 0 33 29 55 63 80
123 349 517 351 514 2 -1 -16 -122 -40 -267 -68 -415 -71 -447 -39 -501 10
-17 56 -56 103 -87 47 -31 87 -60 88 -64 2 -5 7 -8 12 -8 4 0 54 -28 111 -63
57 -34 115 -68 129 -75 14 -7 41 -22 60 -34 54 -32 438 -224 495 -246 28 -11
75 -31 105 -45 30 -14 78 -33 107 -43 28 -10 49 -22 47 -26 -3 -4 2 -5 10 -2
9 3 16 1 16 -6 0 -6 4 -9 10 -5 5 3 17 1 27 -4 10 -6 62 -24 117 -42 54 -17
110 -38 125 -45 l26 -14 -30 0 c-33 0 -63 -15 -52 -26 3 -4 12 -2 19 3 7 6 36
13 63 16 28 3 42 3 33 1 -30 -9 -20 -19 28 -32 26 -7 45 -15 42 -17 -2 -2 -21
0 -42 6 -40 11 -71 6 -61 -11 3 -5 1 -18 -4 -27 -6 -10 -11 -12 -11 -5 0 7
-14 12 -35 12 -31 0 -35 -3 -35 -25 l0 -25 -200 0 c-171 0 -200 -2 -200 -15 0
-11 -12 -15 -48 -15 -35 0 -54 -5 -65 -18 -23 -25 -21 -32 8 -32 16 0 25 -6
25 -15 0 -11 -11 -15 -40 -15 l-40 0 4 -187 c3 -104 10 -330 16 -503 6 -173 8
-388 4 -477 l-6 -163 -333 0 -333 0 -6 23 c-9 36 -7 107 4 107 6 0 10 8 10 18
-1 15 -2 15 -16 -3 -14 -19 -16 -19 -28 -2 -7 9 -18 17 -25 17 -6 0 -11 7 -11
17 0 9 -3 13 -6 10 -4 -3 -18 3 -32 13 -28 23 -76 25 -152 9 -31 -7 -48 -15
-44 -21 4 -6 2 -8 -3 -5 -16 10 -90 -26 -85 -41 2 -7 -2 -10 -11 -6 -16 6
-125 -80 -178 -141 -19 -21 -41 -47 -49 -56 -30 -33 -138 -186 -180 -254 -85
-138 -201 -362 -302 -580 -51 -111 -212 -514 -223 -558 -4 -15 -9 -26 -12 -24
-2 3 12 63 31 133 20 71 51 195 71 276 34 142 67 228 154 406 23 45 41 87 41
91 0 5 3 11 8 13 4 2 17 23 29 48 23 47 48 91 96 173 16 27 26 55 23 62 -3 8
0 12 7 10 19 -7 79 94 85 142 2 23 9 40 13 37 5 -3 12 2 15 10 3 9 10 13 15
10 5 -3 7 -10 4 -15 -4 -5 -4 -9 0 -9 13 0 22 44 11 56 -12 13 -39 7 -30 -7 3
-5 0 -9 -5 -9 -15 0 -14 113 5 365 35 484 37 645 8 645 -10 0 -14 -13 -14 -40
l0 -40 -85 0 -85 0 0 40 0 40 -80 0 -80 0 0 -40 c0 -40 0 -40 -39 -40 -41 0
-51 -11 -51 -56 0 -13 -5 -24 -10 -24 -6 0 -10 19 -10 42 0 24 -1 79 -1 123
l-1 80 -10 -60 c-5 -33 -7 -76 -4 -95 3 -19 1 -42 -4 -50 -7 -12 -10 -8 -11
15 -1 17 0 35 1 40 1 6 2 153 1 328 0 228 -3 323 -12 333 -8 10 -38 14 -116
14 -135 0 -133 16 5 50 l102 25 0 33 c0 31 -2 32 -40 32 -22 0 -40 5 -40 10 0
6 -28 10 -62 10 -35 0 -87 3 -116 6 -44 6 -53 11 -58 30 -6 23 -11 24 -84 24
-43 0 -80 4 -82 9 -2 5 -23 11 -47 12 l-45 4 -53 -103 -54 -102 21 -22 c11
-12 20 -26 20 -30 0 -5 10 -19 23 -32 12 -13 36 -43 54 -67 18 -24 44 -59 59
-77 22 -26 23 -31 8 -25 -10 3 -21 10 -24 13 -3 4 -52 33 -109 64 -83 45 -107
54 -116 44 -13 -15 -155 -321 -155 -335 0 -3 -12 -31 -28 -62 l-27 -56 3 -210
c4 -190 6 -212 23 -231 10 -11 18 -31 18 -45 -1 -20 -2 -21 -6 -4 -9 37 -23
40 -23 4 0 -18 -3 -88 -5 -154 -3 -66 -5 -132 -5 -147 l-1 -28 -284 0 c-183 0
-285 -4 -285 -10 0 -6 -45 -10 -115 -10 l-115 0 0 -29 c0 -17 -5 -33 -11 -37
-6 -4 -10 -33 -8 -73 1 -36 -1 -74 -6 -83 -4 -10 -5 -350 -3 -755 1 -406 2
-724 0 -708 -4 43 -29 240 -47 375 -27 197 -33 385 -24 807 8 426 20 659 45
928 16 174 16 167 -37 390 -15 66 -30 136 -31 155 -2 19 -6 37 -9 40 -4 3 -11
30 -17 60 -5 30 -35 163 -65 295 -158 688 -269 1167 -331 1430 -89 373 -159
661 -232 959 -46 187 -84 348 -84 358 0 46 177 599 290 908 132 360 330 850
519 1284 l22 50 -56 150 c-129 344 -172 443 -190 439 -5 -1 -18 -28 -28 -60
-25 -77 -263 -600 -496 -1087 -39 -82 -71 -150 -71 -152 0 -1 -45 -96 -101
-211 -56 -114 -110 -228 -120 -252 -11 -24 -21 -42 -23 -40 -2 2 -38 137 -79
299 -42 162 -130 504 -197 760 -67 256 -143 548 -169 650 -27 102 -74 280
-104 395 -31 116 -65 246 -77 290 -12 44 -93 344 -181 666 -87 322 -159 591
-159 597 0 6 28 26 63 46 331 185 665 505 889 851 251 389 494 975 648 1565
24 91 45 166 46 168 1 2 15 -8 31 -21 15 -14 38 -34 49 -44 12 -10 36 -60 53
-113 41 -119 115 -277 174 -368 55 -86 173 -211 233 -249 l44 -28 0 -250 c0
-337 11 -484 36 -492 16 -5 23 59 34 307 9 215 16 276 30 285 28 17 49 -202
50 -510 0 -174 11 -330 25 -375 9 -28 33 -32 46 -8 7 12 14 135 20 317 8 274
23 510 36 555 11 38 23 -3 33 -114 12 -137 19 -178 31 -185 20 -13 40 82 54
266 l7 77 46 7 c155 23 320 127 463 292 58 66 170 226 202 289 11 22 30 36 64
49 26 9 81 35 121 56 48 26 74 34 76 26 2 -6 20 -98 40 -204 143 -748 453
-1424 882 -1923 248 -289 520 -509 838 -675 155 -82 238 -117 409 -175 l137
-46 -39 -81 c-21 -44 -80 -146 -130 -227 -147 -236 -197 -347 -222 -492 -15
-86 -8 -391 10 -423 28 -50 46 14 60 207 15 210 72 343 283 663 66 101 137
215 157 252 35 68 36 68 71 62 100 -17 93 -10 85 -74 -11 -93 -54 -256 -112
-426 -30 -88 -81 -238 -113 -332 -89 -261 -112 -374 -118 -574 -6 -239 18
-357 163 -779 156 -456 184 -696 109 -955 l-28 -95 29 -30 c16 -17 34 -30 41
-30 16 0 89 168 116 267 30 110 36 335 13 458 -25 137 -58 260 -130 485 -106
329 -137 485 -137 676 1 216 22 307 182 784 108 319 159 503 160 568 0 18 6
22 31 22 31 0 31 0 25 -44 -12 -80 -9 -766 3 -856 13 -84 24 -120 40 -120 18
0 21 35 51 620 10 192 28 391 35 398 2 2 46 7 99 12 129 13 262 41 374 80 l92
33 0 99 c0 76 -3 99 -12 95 -196 -87 -344 -124 -412 -106 -59 16 -165 14 -210
-5 -21 -9 -51 -16 -67 -16 -26 0 -28 3 -34 58 -12 114 -37 219 -71 302 -20 47
-49 118 -65 159 -50 120 -63 201 -49 299 19 140 53 222 219 521 100 181 140
281 179 446 23 98 26 130 27 305 0 221 -14 310 -90 545 -4 11 15 -20 41 -68
l47 -88 24 23 c34 32 108 153 137 225 14 33 33 99 43 146 14 71 20 86 34 82
41 -13 175 -35 215 -35 l44 0 0 620 0 620 -2835 0 -2834 0 -93 -41 c-51 -22
-111 -49 -133 -59 -22 -10 -69 -32 -105 -48 -268 -123 -562 -270 -576 -288 -6
-7 -14 -11 -18 -7 -3 4 -5 -7 -2 -23 2 -16 1 -21 -1 -11 -2 9 -9 17 -15 17 -5
0 -8 -6 -5 -14 14 -35 19 -89 9 -82 -6 3 -14 1 -18 -5 -5 -8 -3 -9 6 -4 9 6
10 2 5 -16 -11 -33 -22 -380 -13 -415 3 -16 14 -65 22 -109 22 -109 35 -155
46 -155 9 0 94 107 164 205 47 67 200 320 227 376 11 24 27 55 36 69 l14 25
-4 -29 c-12 -72 72 -447 108 -485 11 -12 20 -3 57 55 56 87 112 212 129 287 8
31 17 57 21 57 4 0 7 18 6 40 -2 48 8 63 18 26 3 -14 12 -26 20 -26 8 0 14 -4
14 -9 0 -4 25 -43 57 -87 l56 -79 -12 -60 c-43 -214 -213 -760 -326 -1045
-192 -486 -432 -868 -727 -1156 -160 -156 -445 -363 -467 -338 -4 5 -27 79
-50 164 -23 85 -67 243 -97 350 -179 634 -240 852 -281 995 -25 88 -55 198
-68 245 -13 47 -49 173 -80 280 -32 107 -62 213 -67 235 -4 22 -11 46 -13 53
-5 13 -39 -3 -300 -143 -218 -117 -514 -267 -617 -314 -38 -17 -68 -34 -68
-37 0 -3 30 -126 66 -272 36 -147 72 -296 79 -332 8 -36 28 -121 45 -190 47
-191 76 -317 124 -530 24 -107 74 -327 110 -488 36 -161 66 -300 66 -308 0
-19 -110 -19 -168 1 -30 11 -62 13 -110 9 -78 -7 -200 12 -369 56 -350 93
-634 237 -893 456 -250 210 -462 471 -635 781 -36 64 -65 118 -65 120 0 2 -11
26 -25 55 -29 61 -30 68 -10 68 37 0 429 215 590 324 33 22 114 69 180 103
146 77 1482 746 1580 791 39 18 77 37 85 42 8 6 94 48 190 94 96 46 256 123
355 171 225 109 457 220 695 332 41 20 129 62 195 93 276 133 382 183 420 197
22 9 44 20 50 25 5 4 -674 8 -1508 8 -834 0 -1517 -1 -1517 -2 0 -2 29 -91 64
-198 75 -228 109 -341 104 -345 -19 -19 -573 -225 -604 -225 -14 0 -34 -5 -45
-10 -20 -11 -226 -77 -354 -114 -44 -12 -96 -30 -115 -39 -43 -20 -287 -88
-455 -126 -241 -56 -260 -59 -266 -49 -22 34 -92 579 -87 678 1 36 -1 76 -6
90 -5 19 -5 21 3 10 8 -12 11 -7 11 20 1 19 8 49 16 65 8 17 12 21 8 10 -3
-11 -7 -33 -10 -50 -4 -29 -4 -28 10 5 16 43 31 116 17 85 -5 -11 -10 -15 -10
-8 -2 20 11 43 20 37 5 -3 6 2 3 10 -3 9 -2 16 3 16 6 0 16 26 23 58 7 31 15
63 17 69 4 10 -1923 13 -9531 13 l-9536 0 0 -4566z m17738 4324 c-3 -44 5
-123 9 -100 5 27 8 27 33 2 21 -21 27 -50 10 -50 -5 0 -9 -21 -8 -47 l1 -48 6
45 c14 94 24 -131 17 -380 -11 -404 -16 -479 -35 -478 -9 0 -65 -5 -126 -11
-60 -6 -295 -14 -521 -18 l-412 -6 -20 45 c-41 94 -135 166 -239 183 l-41 6
-7 -66 c-4 -36 -5 -83 -1 -105 3 -21 2 -41 -2 -44 -5 -3 -34 -2 -65 1 -64 7
-63 5 -27 88 9 22 28 68 41 102 18 49 27 60 42 57 69 -13 306 -15 412 -4 66 7
129 14 140 15 11 1 27 5 35 7 41 14 206 68 215 71 10 3 25 12 108 64 21 13 42
21 48 18 5 -4 9 -3 7 2 -3 14 166 177 182 174 12 -1 13 0 1 7 -7 6 -10 15 -6
22 6 9 10 9 17 -1 6 -10 7 -7 3 9 -8 28 11 30 20 1 4 -11 9 -18 11 -16 3 2 0
16 -7 29 -9 20 -8 32 5 57 9 17 23 31 32 31 11 0 13 6 9 20 -4 12 0 31 9 45 9
13 16 31 16 40 0 9 5 13 10 10 6 -4 10 6 11 22 0 31 17 78 18 53 1 -12 3 -13
10 -1 5 7 13 11 18 8 7 -4 9 21 8 66 -2 66 2 97 10 97 2 0 3 -10 3 -22z m338
-78 l154 0 0 -40 c0 -22 4 -40 9 -40 4 0 5 -17 1 -39 -9 -49 5 -320 20 -385 6
-27 8 -51 5 -54 -2 -3 -1 -10 4 -16 7 -9 32 -103 37 -141 0 -5 6 -23 13 -40
11 -26 40 -139 41 -155 0 -3 -12 -7 -26 -8 -14 -1 -72 -9 -128 -17 -115 -16
-299 -36 -303 -31 -2 1 2 144 8 317 6 173 10 413 8 534 -2 121 -3 196 -1 168
l3 -53 155 0z m415 0 c5 0 9 -18 9 -40 0 -29 4 -40 15 -40 11 0 15 11 15 40
l0 40 99 0 c86 0 100 2 104 18 3 9 2 -4 0 -30 -4 -28 -1 -53 6 -61 6 -8 12
-63 13 -129 2 -64 5 -112 8 -107 3 4 12 -47 19 -114 7 -67 21 -165 31 -217 10
-52 22 -118 25 -146 7 -50 7 -51 -21 -59 -16 -4 -49 -9 -74 -11 -25 -3 -61 -9
-80 -14 -19 -6 -51 -10 -71 -10 l-36 0 -31 117 c-17 64 -29 120 -27 124 3 4 1
9 -4 11 -5 1 -11 21 -15 43 -8 55 -14 84 -20 94 -10 16 -19 115 -21 231 -1 86
3 139 19 209 12 52 22 85 24 73 2 -12 8 -22 13 -22z m8986 -917 c84 -54 244
-127 364 -167 310 -103 647 -120 986 -50 30 6 33 4 48 -32 64 -152 71 -357 19
-514 -42 -125 -118 -231 -309 -430 -90 -94 -185 -203 -211 -243 -121 -183
-149 -323 -95 -479 34 -100 87 -167 275 -353 101 -99 196 -200 213 -225 62
-94 95 -215 85 -308 -5 -50 11 -51 -167 15 -324 120 -693 351 -960 601 -341
320 -622 786 -814 1347 -43 126 -131 447 -131 477 0 9 18 42 39 73 43 61 92
171 111 247 15 57 25 54 35 -9 18 -122 104 -331 173 -422 l26 -34 43 48 c74
82 135 224 193 453 6 23 13 42 15 42 3 0 30 -16 62 -37z m-2437 -101 c266
-108 548 -145 830 -108 58 8 107 13 109 10 2 -2 -22 -35 -53 -73 -83 -101
-178 -175 -273 -211 -48 -18 -49 -18 -61 0 -16 26 -62 49 -123 60 -28 5 -79
23 -113 39 -85 41 -134 48 -181 25 l-38 -18 -39 45 c-78 88 -200 291 -166 276
7 -3 56 -23 108 -45z m4129 -39 c32 -78 121 -368 135 -439 50 -248 33 -497
-51 -739 -32 -92 -62 -153 -231 -475 -33 -63 -73 -153 -89 -200 -25 -76 -28
-99 -28 -210 1 -102 5 -136 22 -185 l22 -60 -22 30 c-11 17 -107 118 -212 225
-207 212 -251 274 -275 394 -32 159 38 296 286 556 203 214 249 271 299 375
97 202 109 404 38 628 -13 43 -22 81 -20 83 5 6 99 43 108 44 4 0 12 -12 18
-27z m-17169 -689 c270 -16 406 -29 730 -69 19 -2 37 -4 39 -5 8 0 -31 -286
-60 -435 l-9 -50 -198 12 c-864 52 -1592 39 -2192 -38 -159 -20 -466 -78 -554
-104 -27 -8 -51 -13 -53 -11 -11 11 -42 309 -38 361 3 43 2 54 -6 40 -7 -15
-8 -6 -4 33 4 33 2 52 -5 52 -20 0 -9 18 18 28 31 13 168 46 257 62 33 6 69
13 80 15 11 2 38 8 60 14 39 10 205 36 420 65 113 16 510 44 695 49 180 6 564
-3 820 -19z m959 -98 c24 -3 45 -7 46 -8 1 -2 12 -64 24 -138 12 -74 30 -181
40 -237 l18 -103 -51 1 c-81 1 -214 14 -221 21 -3 3 3 57 14 119 11 63 28 166
37 229 17 124 19 131 37 125 7 -2 32 -6 56 -9z m318 -46 c73 -10 147 -21 165
-24 18 -3 132 -22 253 -41 121 -20 272 -45 335 -55 63 -11 171 -29 240 -40 69
-11 190 -32 270 -45 1151 -194 2055 -271 2749 -236 128 7 236 10 239 7 5 -6
-24 -108 -39 -136 -5 -8 -22 -51 -39 -95 -146 -378 -346 -628 -581 -727 -90
-38 -239 -63 -284 -48 -18 6 -62 13 -97 15 -264 14 -574 304 -737 687 -21 50
-48 66 -81 48 -27 -14 -28 -17 -116 -325 -94 -323 -124 -413 -185 -544 -67
-143 -128 -232 -223 -326 -121 -119 -236 -180 -410 -216 -326 -67 -687 63
-975 351 -129 129 -217 254 -306 435 -64 130 -175 428 -175 470 0 11 44 14
253 14 349 0 579 31 878 116 121 35 261 86 254 93 -10 10 -953 121 -1265 148
-107 9 -198 20 -202 23 -7 6 -21 86 -53 301 -9 58 -18 120 -21 138 -6 38 -17
37 153 12z m-4747 -520 c-6 -11 -20 -20 -30 -20 -11 0 -20 -3 -20 -8 0 -4 -12
-15 -27 -25 -21 -14 -23 -17 -8 -14 11 3 28 8 37 12 16 6 17 4 7 -24 -12 -35
-26 -38 -70 -16 -29 15 -31 15 -67 -13 -20 -16 -44 -32 -52 -35 -13 -5 -12 -6
1 -6 9 -1 33 10 54 24 20 15 40 24 42 21 6 -6 -43 -56 -55 -56 -6 0 -13 -16
-16 -35 -5 -26 -12 -35 -26 -35 -13 0 -20 -7 -20 -20 0 -13 7 -20 20 -20 11 0
20 -7 20 -15 0 -20 -34 -19 -54 1 -17 16 -78 13 -101 -6 -16 -14 -27 0 -14 17
6 7 9 21 6 32 -3 13 4 25 22 38 42 32 71 45 71 33 0 -5 -7 -10 -15 -10 -8 0
-15 -4 -15 -9 0 -5 -15 -16 -32 -24 l-33 -16 42 2 c24 1 37 5 30 9 -12 7 -9 9
23 12 9 0 15 12 15 29 1 21 10 33 35 49 19 11 37 23 40 27 7 8 40 29 65 40 11
5 45 25 75 45 65 42 64 41 50 16z m3665 -340 c44 -99 156 -309 227 -427 l50
-82 -48 -138 c-215 -628 -512 -1066 -854 -1261 -80 -45 -221 -89 -325 -102
-115 -14 -152 -7 -187 35 -32 38 -66 48 -223 65 -60 6 -123 13 -140 16 -64 9
-257 161 -354 278 -206 251 -353 578 -470 1043 -46 184 -102 445 -96 451 2 2
70 -3 152 -12 451 -46 826 -45 1238 5 94 11 205 27 249 35 43 7 80 14 81 14 2
0 26 -43 54 -96 103 -192 218 -341 338 -437 80 -64 112 -82 124 -70 15 15 79
219 99 317 25 118 40 255 40 370 0 49 2 87 4 85 2 -2 20 -42 41 -89z m-8125
-2980 c0 -40 3 -48 15 -44 8 4 15 1 15 -5 0 -6 -4 -11 -10 -11 -5 0 -10 -4
-10 -10 0 -18 31 -11 65 16 22 17 41 23 53 19 12 -3 26 1 37 11 13 13 21 14
38 6 12 -6 16 -11 8 -11 -8 -1 -35 -19 -60 -42 -122 -109 -123 -109 -97 -109
8 0 16 6 19 13 2 6 8 9 12 4 5 -4 2 -13 -7 -20 -9 -6 -18 -19 -21 -27 -4 -12
-6 -11 -6 3 -1 9 -6 17 -12 17 -6 0 -8 -7 -5 -16 15 -39 18 -64 7 -64 -9 0
-15 33 -14 78 1 6 -4 12 -9 12 -6 0 -8 14 -6 30 3 17 1 33 -3 36 -4 2 -11 36
-15 74 -4 39 -11 73 -15 76 -5 3 -7 10 -3 15 12 20 24 -5 24 -51z m-2820
-2513 c-40 -205 -76 -378 -80 -386 -5 -10 -18 3 -44 43 l-37 57 -24 -18 c-13
-10 -44 -44 -70 -76 l-46 -57 33 -58 c63 -110 79 -137 100 -180 l22 -42 -62
-268 c-66 -284 -174 -707 -218 -850 -132 -435 -213 -682 -335 -1022 -22 -63
-46 -129 -52 -147 -5 -18 -15 -29 -20 -26 -6 3 -7 1 -3 -5 7 -11 -102 -312
-113 -312 -3 0 -25 28 -48 63 -24 34 -56 80 -72 102 -67 89 -66 85 -26 184 59
148 152 450 214 696 149 591 267 1405 306 2120 6 106 18 155 38 155 7 0 137
89 174 120 6 5 53 37 105 72 51 34 95 66 96 70 2 5 8 8 13 8 6 0 15 5 22 10 7
6 28 21 47 34 19 12 34 28 33 34 -2 7 4 9 14 5 12 -5 15 -2 10 10 -4 11 -2 14
9 10 17 -6 54 24 54 44 0 12 3 11 16 -2 16 -15 12 -43 -56 -388z m27420 283
c0 -16 -68 -81 -369 -346 -162 -142 -336 -296 -387 -341 -95 -84 -131 -109
-142 -99 -3 3 -3 7 -1 9 7 5 172 149 204 178 17 16 95 85 175 155 80 70 147
130 150 133 3 4 79 72 170 151 91 80 169 151 173 157 9 15 27 17 27 3z m-1863
-3669 c44 -20 60 -43 83 -121 7 -25 17 -49 21 -55 3 -5 10 -51 13 -101 6 -78
5 -92 -8 -97 -10 -4 -17 -20 -18 -44 l-1 -38 -4 35 c-7 72 -18 80 -100 80 -58
0 -73 -3 -73 -15 0 -12 16 -15 80 -15 79 0 80 0 80 -25 0 -25 -1 -25 -80 -25
-47 0 -80 4 -80 10 0 6 -47 10 -120 10 -73 0 -120 -4 -120 -10 0 -5 -25 -10
-55 -10 -42 0 -55 -3 -55 -15 0 -8 -7 -15 -15 -15 -8 0 -15 7 -15 15 0 19 -38
14 -51 -6 -10 -16 -12 1 -3 25 5 13 9 14 20 5 11 -9 14 -6 14 17 0 16 -5 36
-10 44 -8 11 -9 8 -4 -12 5 -21 2 -28 -9 -28 -19 0 -52 -60 -34 -60 7 -1 3 -8
-8 -18 -30 -26 -67 -105 -60 -127 6 -16 5 -17 -4 -5 -9 13 -11 13 -11 -3 0
-10 -7 -29 -16 -42 -9 -14 -13 -32 -10 -42 4 -10 4 -14 0 -10 -7 7 -44 -65
-44 -87 0 -6 -6 -23 -14 -38 -8 -15 -17 -42 -21 -60 -4 -18 -11 -37 -15 -43
-4 -5 -12 -26 -18 -45 -5 -19 -26 -89 -45 -155 -87 -292 -210 -828 -257 -1112
-6 -40 -14 -73 -16 -73 -3 0 -2 35 1 78 3 42 10 158 16 257 11 191 31 299 110
605 180 692 352 1099 544 1283 91 88 136 105 270 106 78 0 109 -4 142 -18z
m-2495 -30 c51 -22 97 -66 148 -141 54 -80 82 -140 77 -162 -4 -14 -1 -18 9
-14 8 3 14 1 14 -4 0 -19 2 -25 21 -62 21 -41 26 -74 8 -48 -9 12 -10 12 -5
-3 3 -10 6 -26 7 -35 0 -14 2 -13 8 2 6 15 9 16 13 5 3 -8 -1 -20 -8 -27 -12
-11 -16 -9 -24 10 -10 22 -10 21 -5 -4 10 -51 25 -79 47 -88 17 -6 19 -9 6 -9
-26 -1 -58 30 -58 56 0 16 -6 23 -20 23 -11 0 -20 7 -20 15 0 12 -14 15 -65
15 l-65 0 0 -30 0 -30 -220 0 c-140 0 -220 -4 -220 -10 0 -15 -38 -12 -43 3
-9 28 1 -345 13 -433 34 -271 143 -762 235 -1063 19 -65 35 -124 34 -130 -1
-7 1 -21 6 -32 4 -11 14 -36 22 -55 7 -19 24 -70 37 -115 13 -44 27 -89 31
-100 3 -11 -30 51 -75 138 -44 87 -78 163 -74 170 4 7 3 9 -1 4 -10 -9 -37 79
-115 378 -115 445 -159 715 -167 1031 -8 309 14 444 98 586 46 79 100 124 183
154 77 28 113 29 168 5z m2405 -3531 c81 -5 272 -17 423 -25 290 -16 754 -45
1105 -70 116 -8 220 -15 233 -15 27 0 33 -13 73 -168 16 -62 26 -118 23 -125
-4 -7 -3 -9 1 -4 5 4 17 -23 27 -60 21 -80 21 -86 8 -78 -6 3 -7 -1 -4 -9 3
-9 10 -14 14 -11 5 3 6 -4 3 -15 -3 -11 -1 -26 5 -33 6 -6 13 -30 17 -52 5
-30 4 -36 -4 -25 -7 10 -11 11 -11 3 0 -10 -62 -13 -275 -13 l-275 0 0 -30 c0
-28 -2 -30 -40 -30 l-40 0 0 40 0 40 -79 0 c-61 0 -80 -3 -85 -15 -8 -23 4
-46 23 -41 9 3 22 2 30 -3 9 -6 4 -8 -18 -7 -17 1 -39 8 -49 16 -9 8 -34 28
-55 43 -21 16 -34 33 -31 39 4 7 2 8 -4 4 -16 -10 -62 33 -55 53 4 13 3 13 -5
2 -5 -7 -15 -10 -22 -6 -9 6 -9 10 1 17 10 7 8 8 -7 4 -14 -4 -30 2 -50 19
-36 32 -266 186 -314 210 -19 10 -37 21 -40 24 -23 29 -400 208 -605 288 -49
19 -92 37 -94 39 -6 6 10 5 176 -6z m-8797 -854 c0 -8 4 -16 8 -18 4 -1 18
-20 30 -40 22 -35 22 -37 5 -48 -15 -10 -14 -10 10 -5 22 4 29 1 39 -20 6 -14
8 -28 3 -33 -4 -4 -10 -1 -12 6 -6 15 -243 18 -243 2 0 -7 -207 -10 -600 -10
-527 0 -600 -2 -600 -15 0 -11 -11 -15 -40 -15 -29 0 -40 -4 -40 -15 0 -11
-11 -15 -40 -15 -22 0 -40 -4 -40 -10 0 -5 -18 -10 -40 -10 -38 0 -40 -2 -40
-30 0 -28 -2 -30 -40 -30 -29 0 -40 4 -40 15 0 11 -11 15 -40 15 -29 0 -40 -4
-40 -15 0 -11 -11 -15 -40 -15 -22 0 -40 4 -40 9 0 16 -142 22 -351 15 -170
-6 -209 -10 -209 -21 0 -12 -59 -13 -397 -8 -219 3 -470 11 -558 17 -194 14
-233 15 -310 6 -33 -4 -49 -3 -35 1 14 4 95 16 180 26 85 10 157 21 160 25 3
4 56 10 119 13 63 4 117 11 120 16 3 5 44 12 91 15 47 4 171 15 275 26 359 37
500 50 660 61 88 6 201 15 250 19 183 15 888 59 1130 70 138 7 302 16 365 20
210 13 350 12 350 -4z"/>
<path d="M15200 3375 c0 -11 -18 -15 -82 -17 -66 -2 -48 -5 87 -12 117 -6 198
-5 262 3 50 6 119 11 152 11 48 0 61 3 61 15 0 13 -33 15 -240 15 -204 0 -240
-2 -240 -15z"/>
<path d="M19972 19971 c2 -17 2 -28 -2 -26 -3 2 -14 -31 -23 -73 -9 -42 -23
-103 -30 -134 -8 -31 -11 -57 -8 -56 28 3 32 -5 9 -18 -29 -15 -40 -48 -13
-38 17 7 21 -11 5 -21 -5 -3 -10 -12 -9 -18 0 -9 2 -9 6 1 2 6 13 12 24 12 16
0 19 7 19 40 l0 40 145 0 c131 0 145 2 145 18 0 14 2 15 10 2 5 -8 10 -34 10
-57 0 -25 5 -43 11 -43 8 0 9 27 3 93 -4 50 -7 140 -6 200 l2 107 -151 0 -151
0 4 -29z"/>
<path d="M23180 19372 c0 -5 -12 -15 -27 -23 -16 -7 -43 -26 -62 -41 -19 -15
-39 -24 -44 -21 -6 3 -7 1 -4 -4 4 -6 -1 -21 -11 -34 -56 -73 -71 -203 -35
-309 21 -63 30 -65 97 -22 142 92 210 242 175 383 -7 30 -13 59 -14 64 0 12
-75 20 -75 7z"/>
<path d="M26373 18615 c-122 -56 -196 -164 -197 -285 0 -63 29 -180 44 -180 4
0 35 18 69 41 149 100 207 233 166 384 -9 36 -20 65 -24 65 -3 0 -30 -11 -58
-25z"/>
<path d="M18222 17073 l-91 -57 -6 -51 c-8 -60 9 -251 31 -345 34 -150 99
-308 176 -427 84 -129 312 -363 354 -363 38 0 -10 122 -98 247 -24 34 -63 89
-87 123 -132 188 -203 433 -202 694 1 67 5 147 9 179 5 31 8 57 7 57 -1 0 -43
-26 -93 -57z"/>
<path d="M24800 16323 c0 -506 -9 -845 -30 -1168 -11 -158 -35 -401 -46 -461
l-6 -31 104 -27 c57 -15 165 -46 242 -67 76 -22 144 -38 150 -36 7 3 32 49 56
103 100 228 459 983 636 1337 l104 209 -47 54 -48 53 -22 -27 c-22 -27 -189
-264 -313 -447 -36 -52 -120 -175 -188 -273 -68 -97 -154 -222 -190 -276 l-67
-99 -7 39 c-4 21 -21 163 -38 314 -17 151 -37 331 -45 400 -8 69 -33 285 -55
480 -22 195 -42 374 -45 398 l-6 42 -70 0 -69 0 0 -517z"/>
<path d="M8600 16730 c-136 -89 -131 -83 -222 -260 -167 -325 -241 -466 -274
-521 -19 -31 -34 -60 -34 -64 0 -4 -16 -34 -36 -66 -19 -33 -34 -64 -32 -70 5
-14 112 -148 119 -149 3 0 23 37 44 83 21 45 51 111 68 147 62 134 77 170 69
170 -4 0 -2 4 3 8 16 11 36 62 29 74 -4 6 -3 8 3 5 5 -3 56 99 113 229 58 129
108 233 111 232 11 -4 128 -185 167 -258 146 -275 158 -570 37 -949 -27 -84
-153 -403 -199 -503 -116 -251 -208 -501 -242 -658 -27 -122 -27 -458 -1 -580
21 -95 84 -295 129 -410 228 -580 245 -745 117 -1118 -148 -431 -153 -450
-153 -652 0 -126 4 -172 22 -244 23 -90 89 -266 119 -314 108 -173 210 -302
239 -302 36 0 -10 157 -80 269 -34 55 -92 207 -113 296 -14 62 -18 119 -17
255 1 221 21 320 124 599 158 429 149 646 -51 1162 -86 223 -115 310 -144 432
-71 292 -55 562 52 867 34 99 76 198 241 575 83 191 143 364 178 512 32 134
44 380 24 501 -21 133 -82 276 -189 447 -28 44 -76 123 -108 175 -31 52 -59
98 -62 102 -3 4 -26 -6 -51 -22z"/>
<path d="M15554 16365 c-9 -48 12 -126 43 -159 27 -30 96 -65 126 -66 13 0 17
9 17 43 0 94 -41 165 -115 198 -56 26 -63 24 -71 -16z"/>
<path d="M21625 14709 c20 -131 70 -231 143 -283 49 -37 136 -66 192 -66 l33
0 -5 78 c-7 100 -37 169 -95 223 -59 54 -123 81 -206 87 l-69 5 7 -44z"/>
<path d="M3966 13647 c-16 -15 -26 -30 -22 -34 3 -4 12 -1 18 5 17 17 33 15
18 -3 -7 -8 -9 -15 -5 -15 4 0 2 -7 -5 -15 -7 -8 -17 -15 -22 -15 -6 0 -6 6 1
14 9 11 8 15 -5 20 -25 10 -38 -8 -25 -32 13 -24 14 -35 3 -28 -10 6 -37 -10
-38 -24 -1 -5 -2 -14 -3 -19 0 -5 -10 -11 -20 -14 -14 -3 -18 -1 -14 9 3 8 13
14 22 14 11 0 12 3 4 8 -9 6 -5 13 12 26 24 18 33 36 18 36 -17 0 -157 -140
-141 -140 9 0 19 5 21 10 3 6 4 5 3 -2 -2 -7 -15 -12 -30 -11 -28 2 -33 -6
-14 -25 8 -8 9 -12 1 -12 -6 0 -13 6 -16 13 -3 8 -13 4 -31 -13 -27 -27 -23
-56 8 -44 15 6 15 7 -1 21 -17 13 -16 14 8 9 24 -5 52 10 100 56 9 9 25 19 36
22 10 3 45 31 78 61 33 30 68 57 78 61 10 3 14 10 10 17 -4 6 -9 25 -12 42
l-6 30 -29 -28z"/>
<path d="M27135 13085 c-149 -57 -193 -74 -235 -92 -91 -38 -304 -157 -418
-234 l-53 -36 57 -79 c74 -103 137 -184 144 -184 3 0 21 22 40 48 40 54 156
196 214 262 22 25 104 109 183 187 79 78 143 145 143 148 0 7 -8 5 -75 -20z"/>
<path d="M28000 13072 c0 -5 -14 -23 -31 -40 -18 -18 -30 -35 -27 -37 7 -7 48
30 48 43 0 15 32 24 44 12 8 -8 6 -9 -5 -5 -12 5 -23 -5 -40 -34 -23 -42 -37
-49 -55 -31 -7 7 -21 0 -42 -21 -25 -25 -30 -35 -21 -45 7 -9 8 -14 1 -14 -6
0 -12 6 -15 13 -3 8 -12 4 -27 -12 -22 -22 -22 -23 -2 -17 17 6 19 3 15 -14
-3 -11 -9 -20 -14 -20 -4 0 -6 -11 -3 -25 3 -18 0 -25 -12 -25 -10 0 -15 8
-14 23 3 36 1 40 -15 27 -8 -7 -13 -16 -10 -20 3 -4 -2 -13 -10 -20 -13 -11
-14 -10 -9 6 5 15 4 16 -4 4 -6 -8 -8 -26 -5 -42 4 -22 1 -29 -21 -39 -18 -9
-29 -9 -38 -1 -10 7 -19 6 -33 -5 -20 -15 -20 -15 1 -10 18 4 21 1 15 -17 -11
-38 -39 -69 -56 -62 -12 4 -19 -3 -27 -25 -7 -21 -22 -36 -44 -45 -21 -9 -34
-21 -34 -32 0 -10 -10 -28 -23 -40 -18 -17 -26 -19 -35 -10 -16 16 -15 28 2
28 8 0 18 5 21 10 3 6 1 10 -5 10 -16 0 -116 -97 -108 -105 9 -10 48 14 48 29
0 8 6 19 14 25 11 9 15 8 20 -4 3 -9 2 -13 -4 -10 -6 3 -10 3 -10 -2 0 -4 -9
-23 -21 -42 -15 -25 -23 -31 -32 -22 -6 6 -20 11 -31 11 -16 0 -17 -3 -8 -12
32 -32 -3 -83 -50 -74 -15 3 -28 2 -28 -3 0 -11 46 -20 71 -14 10 3 19 9 19
14 0 5 11 7 24 3 23 -5 43 17 31 35 -2 5 6 6 19 4 31 -6 80 46 82 87 2 38 10
48 27 31 9 -11 9 -14 0 -18 -7 -3 -13 -12 -13 -20 0 -11 11 -5 34 18 19 19 51
45 70 59 20 14 53 41 74 60 21 19 49 44 64 55 14 11 43 36 65 55 21 20 67 57
103 84 36 27 67 53 68 58 2 4 10 8 18 8 8 0 14 4 14 10 0 5 11 12 25 16 14 3
25 10 25 16 0 12 50 56 73 64 17 5 15 9 -15 35 -18 15 -38 28 -45 29 -6 0 -13
4 -15 8 -4 9 -63 52 -72 52 -3 0 -6 -4 -6 -8z"/>
<path d="M27855 12304 c-39 -31 -77 -63 -86 -72 -9 -10 -36 -33 -59 -52 -77
-62 -334 -303 -583 -546 l-48 -47 37 -38 37 -37 26 31 c14 18 47 55 72 82 26
28 62 68 80 89 19 22 48 54 64 71 17 17 75 80 130 140 89 97 207 220 359 374
28 28 48 53 45 55 -3 3 -36 -20 -74 -50z"/>
<path d="M27217 12299 c-10 -11 -15 -24 -12 -29 9 -15 -5 -50 -20 -50 -7 0
-15 5 -17 12 -3 7 -12 4 -27 -11 -15 -15 -19 -26 -13 -34 17 -23 20 -44 6 -44
-8 0 -14 6 -14 13 0 28 -23 24 -56 -10 -31 -32 -33 -38 -23 -58 11 -21 11 -22
-5 -9 -9 8 -19 11 -23 7 -3 -3 -2 -6 4 -6 18 0 2 -58 -18 -63 -23 -6 -24 1 -5
22 8 9 12 21 8 26 -4 6 -24 -7 -47 -29 -32 -32 -36 -38 -17 -34 12 3 22 2 22
-3 0 -5 -4 -9 -9 -9 -14 0 -8 -65 7 -79 10 -10 16 -6 30 18 9 17 22 31 27 31
13 0 126 122 120 129 -3 2 -14 -4 -25 -15 -10 -10 -26 -24 -34 -31 -7 -7 -16
-18 -19 -25 -2 -7 -8 -10 -12 -6 -10 9 4 48 17 48 6 0 24 14 41 31 23 24 31
28 38 18 6 -11 12 -10 27 6 10 11 16 27 14 34 -3 9 0 12 11 8 22 -8 59 35 50
59 -6 17 -5 17 10 6 14 -12 23 -6 73 42 32 31 51 56 43 56 -8 0 -30 -16 -48
-35 -18 -20 -36 -33 -39 -30 -3 3 0 11 6 17 20 20 14 36 -13 33 -14 -1 -25 2
-25 6 0 14 -14 9 -33 -12z"/>
<path d="M6456 11575 c16 -14 32 -25 36 -25 3 0 23 -16 43 -36 35 -33 38 -34
51 -17 7 10 14 13 14 6 0 -6 -4 -15 -10 -18 -21 -13 -9 -27 18 -21 15 3 21 3
15 0 -17 -8 -17 -27 0 -21 8 3 20 1 28 -5 11 -8 10 -8 -5 -4 -10 4 10 -20 45
-53 50 -47 66 -58 77 -48 11 8 13 8 10 -4 -3 -13 56 -79 87 -96 7 -5 33 -26
57 -48 23 -22 57 -51 73 -64 17 -12 66 -55 110 -94 43 -40 100 -90 125 -112
25 -21 79 -71 121 -110 42 -38 100 -92 130 -120 107 -97 383 -361 440 -420 34
-35 53 -62 47 -66 -6 -4 -7 -12 -3 -19 6 -9 10 -8 17 4 8 14 18 8 68 -46 54
-57 64 -78 39 -78 -5 0 -9 7 -9 15 0 11 -5 12 -25 5 -20 -8 -27 -5 -40 13
l-15 21 0 -22 c0 -16 4 -21 13 -16 13 8 -11 -26 -27 -37 -4 -4 -3 -10 3 -13 6
-4 11 -17 11 -29 0 -16 -3 -18 -12 -9 -7 7 -25 12 -40 12 -15 0 -28 5 -28 11
0 8 -4 8 -14 0 -12 -10 -15 -8 -18 11 -2 14 -12 24 -28 28 l-25 6 23 8 c13 4
26 5 29 2 9 -9 33 22 33 44 0 19 -5 21 -42 18 -42 -3 -43 -4 -40 -37 2 -31 1
-33 -15 -20 -23 17 4 -16 61 -75 31 -32 38 -36 34 -19 -6 21 -4 22 25 10 17
-7 32 -19 35 -27 3 -13 2 -13 -6 -1 -13 19 -46 6 -35 -13 5 -9 55 -65 113
-126 58 -62 106 -115 108 -120 1 -4 31 -36 65 -72 67 -69 135 -144 207 -228
25 -29 50 -58 55 -64 6 -6 39 -45 74 -86 36 -41 81 -91 100 -111 20 -19 56
-60 81 -89 25 -30 52 -61 60 -70 8 -8 36 -42 62 -75 26 -33 84 -103 128 -155
44 -52 80 -98 80 -101 0 -4 7 -9 15 -12 16 -7 16 -7 -85 233 -34 80 -68 161
-75 180 -12 33 -63 156 -86 210 -6 14 -17 38 -25 53 -8 16 -14 38 -14 48 0 11
-11 45 -25 75 -14 30 -25 58 -25 62 -1 4 -9 25 -20 47 -11 22 -19 45 -20 52 0
6 -9 28 -20 50 -10 21 -56 128 -100 238 -97 238 -125 297 -153 325 -120 115
-360 337 -427 396 -25 21 -56 50 -70 64 -15 14 -60 54 -100 90 -41 36 -77 67
-80 70 -3 3 -34 30 -70 60 -36 30 -90 77 -121 105 -31 27 -76 66 -100 86 -24
20 -79 66 -121 103 -42 36 -82 66 -88 66 -6 0 -13 7 -16 15 -4 10 -14 14 -28
10 -14 -4 -17 -3 -8 3 10 7 2 19 -35 49 -41 35 -54 40 -90 38 -34 -2 -40 1
-35 14 3 9 10 20 16 24 7 6 4 7 -6 3 -13 -4 -18 0 -18 12 0 23 -40 49 -50 32
-12 -19 -32 -1 -25 21 6 18 0 19 -119 19 -105 0 -126 2 -126 15 0 11 -11 15
-40 15 -29 0 -40 -4 -40 -15 0 -14 -3 -14 -24 0 -13 8 -30 13 -38 10 -9 -4
-23 2 -33 11 -23 23 -98 74 -109 74 -5 0 4 -11 20 -25z"/>
<path d="M1720 10701 c0 -80 3 -216 7 -301 l6 -156 41 -29 c23 -16 60 -47 84
-69 23 -21 44 -37 47 -34 5 5 -90 706 -97 713 -2 2 -23 8 -46 13 l-42 10 0
-147z"/>
<path d="M20552 9605 c-1 -11 3 -60 9 -110 5 -49 12 -112 14 -139 7 -74 62
-449 96 -648 17 -97 31 -194 32 -215 3 -37 4 -38 67 -60 36 -12 75 -22 88 -22
19 -1 231 -56 357 -93 l40 -11 -33 -7 c-18 -4 -77 -11 -130 -14 -53 -4 -126
-11 -162 -16 -36 -5 -92 -12 -124 -15 -33 -2 -61 -7 -64 -10 -3 -3 0 -5 6 -5
9 0 11 -17 7 -57 -3 -39 -2 -48 4 -28 7 29 7 29 14 -15 4 -25 7 -54 7 -65 1
-10 6 -25 12 -32 5 -7 13 -42 16 -79 3 -44 8 -61 14 -52 6 8 7 0 2 -22 -4 -19
-7 -74 -8 -122 0 -59 -3 -82 -9 -71 -6 9 -7 45 -4 79 l6 64 -44 0 c-33 0 -45
-4 -45 -15 0 -12 -16 -15 -80 -15 -79 0 -80 0 -80 -25 l0 -25 -200 0 c-171 0
-200 -2 -200 -15 0 -12 -16 -15 -80 -15 -79 0 -80 0 -80 -25 0 -25 -1 -25 -85
-25 l-85 0 0 30 0 31 -23 -23 c-16 -15 -20 -25 -13 -30 6 -4 -2 -8 -17 -8 -24
0 -27 3 -22 20 3 11 2 20 -4 20 -5 0 -13 -9 -16 -20 -3 -11 -11 -20 -16 -20
-14 0 -11 16 6 30 8 7 15 19 15 27 0 8 5 11 10 8 6 -4 10 6 9 22 0 16 -3 22
-6 13 -3 -8 -23 -35 -44 -60 -27 -33 -36 -52 -33 -70 5 -27 -10 -59 -22 -47
-4 4 -2 13 4 19 15 15 16 28 2 28 -5 0 -10 -6 -10 -14 0 -8 -7 -16 -15 -20 -8
-3 -12 -12 -9 -19 3 -8 -2 -17 -10 -20 -8 -3 -30 -31 -48 -62 -70 -120 -88
-151 -96 -170 -6 -11 -24 -49 -41 -84 -17 -36 -31 -72 -31 -82 0 -10 -4 -21
-10 -24 -5 -3 -10 -15 -10 -26 0 -11 -4 -17 -10 -14 -5 3 -10 -2 -10 -13 0
-10 -11 -52 -25 -93 -85 -246 -110 -406 -110 -697 0 -127 -1 -232 -2 -232 -1
0 -9 12 -17 28 -8 15 -24 38 -36 52 -138 159 -146 168 -238 237 -69 52 -218
126 -298 148 -38 11 -117 19 -221 22 l-163 6 0 -54 c0 -60 29 -200 55 -269 65
-174 194 -353 328 -461 38 -29 74 -58 80 -64 7 -5 35 -22 62 -37 28 -15 50
-31 50 -37 0 -5 -22 -26 -50 -47 -57 -43 -215 -202 -215 -217 0 -5 8 -6 18 -2
39 16 72 23 76 17 2 -4 -35 -88 -84 -187 -48 -99 -102 -211 -120 -250 -18 -38
-41 -89 -53 -113 -11 -23 -18 -44 -16 -46 6 -5 1321 -27 1326 -22 2 2 0 12 -6
23 -32 57 -64 301 -47 367 9 37 12 36 138 -33 59 -32 149 -103 221 -175 15
-15 30 -26 31 -25 2 2 15 38 29 80 26 79 65 170 76 179 3 3 17 27 31 53 28 54
48 78 127 160 78 79 87 77 104 -30 19 -120 17 -455 -3 -543 -9 -36 -13 -68 -9
-72 3 -4 131 -10 284 -14 l278 -7 -7 -41 c-3 -23 -15 -68 -25 -101 -10 -33
-27 -112 -37 -176 -10 -64 -22 -121 -26 -127 -4 -7 -4 -17 0 -23 3 -6 24 29
46 78 45 100 85 187 135 287 30 60 32 71 19 84 -12 12 -15 12 -21 -7 -5 -16
-9 -18 -19 -9 -10 10 -9 31 6 108 9 52 22 113 28 135 13 55 13 60 -7 44 -15
-13 -16 -12 -9 11 5 14 17 59 28 100 11 41 25 86 33 100 7 14 37 75 66 135 30
61 57 115 62 120 4 6 40 60 79 120 149 227 415 446 635 521 162 56 463 41 720
-36 56 -16 104 -30 106 -30 2 0 -24 55 -58 123 -34 67 -74 151 -89 187 -16 36
-39 88 -51 115 -12 28 -25 57 -28 65 -3 8 -22 53 -42 100 -267 629 -394 1147
-351 1434 11 76 23 116 52 172 l37 73 -39 58 c-22 32 -67 96 -99 143 -32 47
-61 87 -65 90 -4 3 -18 21 -31 40 -20 28 -117 161 -151 205 -4 6 -31 39 -61
75 -29 36 -68 84 -86 108 -18 23 -38 42 -44 41 -14 0 -43 -20 -153 -103 -44
-33 -95 -71 -114 -85 -19 -14 -38 -30 -42 -35 -5 -7 -8 -7 -8 2 0 10 64 116
80 132 3 3 31 37 62 75 31 39 66 80 78 93 l22 24 -24 26 c-63 68 -102 113
-114 129 -7 10 -49 55 -93 101 -45 46 -81 88 -81 93 0 5 -5 9 -12 9 -6 0 -24
14 -40 32 -15 17 -28 27 -28 22 0 -6 5 -15 12 -22 9 -9 -53 -12 -280 -12 -253
0 -292 -2 -292 -15 0 -13 29 -15 200 -15 171 0 200 -2 200 -15 0 -13 -32 -15
-230 -15 l-230 0 0 30 c0 17 -4 30 -9 30 -6 0 -12 17 -14 38 -2 20 -4 28 -5
17z"/>
<path d="M9278 9204 c-5 -4 -8 -24 -8 -44 l0 -36 -76 1 c-53 1 -80 -2 -89 -12
-12 -11 -18 -11 -37 -1 -13 7 -26 18 -30 23 -5 6 -8 5 -8 -2 0 -7 8 -17 18
-22 9 -5 31 -30 47 -55 25 -39 34 -45 55 -42 14 3 19 3 13 0 -20 -9 -15 -27
12 -53 14 -13 25 -18 25 -12 0 6 5 11 11 11 8 0 8 -4 -1 -15 -12 -15 -11 -18
42 -80 9 -11 33 -40 53 -65 20 -25 55 -67 78 -94 23 -27 46 -56 51 -65 5 -9
14 -21 20 -27 20 -21 51 -59 101 -124 28 -36 52 -67 55 -70 3 -3 17 -21 30
-40 13 -19 30 -41 37 -48 7 -8 26 -30 41 -50 15 -21 39 -50 54 -66 15 -17 33
-41 40 -55 7 -15 23 -37 36 -51 12 -14 22 -31 22 -38 0 -7 7 -15 15 -18 18 -7
20 -31 3 -37 -8 -2 -9 -8 -4 -13 5 -5 11 -4 13 4 7 19 19 14 38 -14 13 -20 14
-28 4 -40 -16 -19 -4 -30 16 -14 16 14 31 8 21 -8 -7 -12 -282 -19 -294 -8 -2
2 -4 20 -5 40 -2 31 -4 33 -17 21 -13 -13 -12 -19 3 -45 25 -42 13 -38 -13 5
-12 19 -18 40 -14 47 5 10 4 10 -6 1 -16 -15 6 -66 44 -102 14 -14 26 -29 26
-34 0 -5 14 -26 30 -46 49 -58 51 -61 84 -110 17 -25 47 -67 66 -92 19 -26 41
-55 47 -65 25 -38 153 -219 163 -231 5 -7 10 -16 10 -22 0 -5 4 -11 9 -13 11
-4 359 -524 430 -643 30 -49 65 -104 78 -121 12 -17 23 -36 23 -42 0 -6 3 -12
8 -14 4 -1 32 -43 63 -93 109 -175 313 -511 349 -575 20 -36 61 -108 92 -160
137 -235 210 -364 252 -444 64 -119 59 -112 111 -199 26 -44 44 -85 41 -93 -3
-8 -2 -13 3 -9 5 3 24 -24 42 -60 25 -48 39 -65 54 -65 142 0 1615 41 1615 45
0 3 -43 82 -88 160 -22 39 -58 107 -80 152 -22 44 -53 101 -68 125 -38 57 -60
96 -81 138 -9 19 -23 41 -29 48 -7 6 -16 21 -19 32 -3 11 -11 20 -16 20 -5 0
-9 5 -9 11 0 6 -14 32 -31 58 -41 60 -129 201 -129 207 0 2 -16 26 -35 53 -19
26 -35 52 -35 55 0 4 -12 23 -26 41 -31 41 -86 130 -123 199 -14 27 -40 63
-57 80 -17 17 -34 38 -37 46 -4 12 -6 12 -6 -2 -1 -9 4 -20 9 -23 6 -3 10 -15
10 -26 0 -14 -7 -19 -29 -19 -29 0 -57 21 -44 34 4 4 1 11 -7 17 -11 6 -12 11
-4 17 9 5 8 10 -1 19 -18 17 -26 -52 -8 -70 11 -11 6 -14 -34 -16 -26 -1 -50
-4 -53 -6 -4 -2 -4 9 -2 26 4 27 2 29 -31 29 -26 0 -36 5 -40 20 -3 11 -10 20
-17 20 -6 0 -8 -5 -4 -11 4 -7 1 -10 -7 -7 -8 3 -14 9 -14 15 0 6 -12 25 -27
42 -16 17 -28 34 -28 37 0 4 -11 22 -25 40 -14 18 -25 37 -25 42 0 6 -3 12 -7
14 -8 3 -73 93 -73 101 0 3 -131 203 -166 252 -56 79 -94 137 -94 142 0 4 -8
16 -19 27 -10 12 -50 68 -90 126 -39 58 -89 130 -111 160 -22 30 -63 89 -92
130 -28 41 -78 110 -110 152 -32 42 -58 81 -58 87 0 5 -3 11 -7 13 -5 2 -22
20 -40 40 -17 20 -34 34 -38 30 -3 -3 -3 1 1 11 3 10 1 17 -5 17 -6 0 -11 7
-11 15 0 8 -3 15 -7 15 -5 0 -26 25 -48 55 -22 30 -42 55 -46 55 -3 0 -12 12
-19 28 -7 15 -15 22 -17 14 -5 -14 -42 26 -38 43 1 5 0 7 -2 3 -3 -5 -11 -8
-19 -8 -19 0 -18 28 2 32 13 2 12 6 -7 23 -12 11 -19 15 -16 9 4 -7 4 -26 1
-43 -6 -28 -10 -31 -45 -31 -35 0 -39 3 -39 25 0 25 -1 25 -80 25 l-80 0 0
-40 0 -40 -40 0 c-27 0 -43 5 -46 15 -7 17 -34 21 -34 5 0 -5 5 -10 10 -10 6
0 10 -10 10 -22 0 -19 -7 -15 -45 27 -25 28 -45 55 -45 61 0 6 -10 16 -23 23
-12 7 -28 24 -35 39 -6 15 -35 55 -64 88 -29 34 -60 70 -68 80 -13 17 -111
134 -186 224 -71 83 -230 268 -248 287 -12 12 -30 34 -41 48 -70 90 -115 136
-127 129 -6 -4 -8 -3 -5 3 8 12 -103 133 -121 133 -7 0 -12 10 -13 23 0 12 -3
16 -6 10 -2 -7 -9 -13 -15 -13 -6 0 -7 7 -4 16 7 17 -9 44 -26 44 -5 0 -3 -10
3 -22 12 -22 11 -22 -8 -5 -12 10 -36 17 -61 17 -31 0 -42 4 -42 15 0 8 -4 15
-10 15 -5 0 -10 7 -10 16 0 17 -23 44 -39 44 -5 0 -11 7 -13 16 -2 9 -6 12
-10 8z"/>
<path d="M2034 8725 c17 -56 50 -186 60 -235 10 -51 52 -130 76 -145 5 -3 10
-14 9 -23 0 -14 -2 -13 -9 3 -7 17 -9 16 -9 -10 -1 -17 6 -41 15 -53 8 -12 11
-22 5 -22 -5 0 -15 8 -21 18 -8 12 -13 13 -16 5 -4 -9 -12 -7 -27 7 -21 21
-53 28 -42 10 4 -6 -10 -10 -34 -10 -30 0 -41 -4 -41 -15 0 -11 11 -15 40 -15
29 0 40 -4 40 -15 0 -12 -16 -15 -80 -15 -47 0 -80 -4 -80 -10 0 -5 -18 -10
-40 -10 -29 0 -40 -4 -40 -15 0 -11 11 -15 40 -15 30 0 40 -4 40 -16 0 -13
-14 -15 -86 -13 -48 1 -90 -3 -96 -9 -12 -12 17 -80 42 -99 8 -6 12 -14 8 -18
-3 -4 7 -29 23 -56 16 -28 29 -54 29 -59 0 -5 14 -32 30 -58 17 -27 30 -57 30
-66 0 -9 4 -16 8 -16 4 0 23 -34 42 -75 19 -41 38 -75 43 -75 4 0 7 -5 7 -12
0 -19 62 -148 71 -148 5 0 9 -6 9 -14 0 -8 13 -44 30 -80 16 -36 25 -66 20
-66 -6 0 -10 -19 -10 -43 0 -40 -4 -46 -47 -78 -57 -41 -63 -44 -63 -31 0 5
20 23 45 39 l44 29 -42 1 c-28 2 -37 -1 -27 -7 8 -5 11 -12 7 -16 -4 -4 -15 0
-25 9 -14 13 -38 17 -95 17 -75 0 -77 1 -77 25 l0 25 -160 0 c-136 0 -160 2
-160 15 0 11 -11 15 -40 15 -33 0 -40 3 -40 20 0 11 -6 20 -14 20 -8 0 -18 9
-21 20 -7 21 -39 27 -50 10 -4 -6 4 -19 17 -29 59 -48 68 -59 68 -90 0 -21 5
-31 16 -31 8 0 22 -7 30 -15 18 -18 6 -19 -33 -3 -15 6 -31 12 -35 12 -5 1 -7
6 -6 11 2 6 6 9 10 8 5 -2 8 5 8 16 0 33 -34 50 -87 42 -4 -1 6 -14 21 -30 16
-16 41 -56 57 -88 15 -32 28 -51 29 -43 0 10 5 7 16 -8 8 -12 13 -28 11 -35
-3 -7 -6 -5 -6 6 -1 9 -6 17 -12 17 -5 0 -8 -4 -5 -8 3 -5 7 -22 10 -38 12
-65 18 -84 27 -84 5 0 9 -7 9 -16 0 -9 -5 -12 -12 -8 -8 5 -9 2 -4 -12 19 -50
4 -377 -24 -536 -6 -31 -10 -60 -9 -65 1 -4 0 -15 -4 -23 -3 -8 -11 -40 -17
-70 -35 -162 -77 -316 -136 -500 -203 -630 -500 -1321 -864 -2010 -67 -126
-67 -126 -76 -117 -4 4 -1 13 6 21 6 9 10 20 8 26 -2 7 -11 -4 -20 -24 -12
-25 -14 -37 -6 -42 7 -5 8 -3 3 6 -5 8 -4 11 3 6 12 -7 5 -36 -8 -36 -5 0 -10
-8 -13 -18 -2 -9 -3 2 -2 25 0 23 4 45 8 49 4 4 7 17 7 29 0 12 8 37 17 55 15
31 17 32 25 14 6 -15 7 -13 3 7 -5 29 17 94 28 82 4 -3 7 1 7 10 0 9 29 76 64
149 127 266 150 316 231 498 92 208 165 379 220 520 21 52 46 114 56 137 11
23 19 46 19 52 0 5 10 31 21 58 12 26 21 64 21 83 -1 19 2 29 5 21 3 -9 13 4
24 33 13 35 15 55 8 73 -12 33 -31 18 -25 -20 l6 -32 -15 30 c-8 17 -14 36
-15 43 0 8 -16 12 -44 12 -25 0 -48 5 -51 10 -3 6 -19 10 -34 10 -20 0 -30 7
-38 28 -10 24 -11 24 -12 6 -1 -22 -19 -34 -51 -34 -15 0 -32 -25 -35 -50 0
-9 -36 -92 -50 -120 -8 -14 -24 -55 -38 -90 -82 -217 -397 -875 -603 -1262
l-84 -157 0 -1906 0 -1905 420 0 420 0 -5 27 c-4 23 -4 25 4 8 l10 -20 1 20
c1 11 3 25 5 30 1 6 3 15 3 22 1 7 9 10 18 6 13 -5 15 -2 9 15 -4 13 -2 22 4
22 6 0 11 15 11 33 0 18 5 38 11 44 9 9 16 29 18 58 1 6 6 3 12 -5 8 -12 9
-10 4 7 -3 13 2 37 14 59 22 41 133 152 138 137 2 -5 -42 -110 -97 -233 -54
-123 -98 -225 -96 -227 1 -2 515 -2 1140 -1 l1137 3 -142 155 c-464 505 -575
603 -1144 1010 -237 169 -317 233 -447 357 -107 102 -172 141 -295 174 -64 18
-96 21 -173 17 -52 -3 -84 -2 -70 2 43 12 139 68 132 76 -4 4 -2 4 4 1 14 -8
165 54 158 65 -3 4 2 5 11 2 9 -4 37 2 63 12 26 9 94 30 151 45 84 21 100 28
85 37 -16 9 -15 10 8 9 14 -1 24 -5 22 -9 -7 -11 99 3 114 15 6 5 12 15 12 23
0 7 8 29 17 48 15 33 15 38 -2 76 -10 22 -24 40 -31 40 -8 0 -11 6 -8 15 4 8
2 21 -4 28 -5 6 -15 36 -22 65 -8 33 -17 52 -27 52 -9 0 -12 6 -8 19 3 10 1
29 -4 42 -10 23 -10 23 -11 -6 0 -32 -15 -63 -25 -54 -3 4 -1 19 5 34 6 15 8
37 4 48 -4 13 -2 17 5 13 6 -4 11 -2 11 3 0 6 -7 11 -15 11 -8 0 -15 5 -15 10
0 6 -3 10 -8 10 -4 0 -8 -19 -8 -42 -1 -31 1 -37 7 -23 7 18 8 17 8 -5 0 -31
-17 -75 -18 -47 -1 23 -81 25 -81 2 0 -11 -11 -15 -40 -15 -29 0 -40 -4 -40
-15 0 -11 -11 -15 -40 -15 -29 0 -40 4 -40 15 0 11 11 15 40 15 36 0 40 3 40
25 0 23 -4 25 -40 25 -29 0 -40 4 -40 15 0 11 11 15 40 15 29 0 40 4 40 15 0
12 -16 15 -80 15 -64 0 -80 -3 -80 -15 0 -11 -11 -15 -40 -15 -41 0 -61 19
-59 57 0 16 1 16 10 -2 7 -15 8 -12 3 12 -3 20 0 43 10 60 24 43 93 221 112
291 9 34 21 62 25 62 5 0 6 6 3 13 -3 8 2 34 11 58 9 24 19 55 22 69 5 23 25
97 103 375 68 246 154 512 211 657 72 182 205 430 365 678 228 355 435 729
829 1495 105 204 155 300 259 493 l65 123 -81 152 c-118 222 -164 302 -311
547 -86 144 -351 531 -399 584 -10 11 -18 25 -18 32 0 7 -4 14 -8 16 -4 2 -23
23 -42 48 -19 24 -43 53 -52 64 -10 11 -18 26 -18 33 0 15 -157 414 -167 423
-3 3 -3 -4 1 -15z"/>
<path d="M15274 6909 c1 -23 64 -118 126 -189 48 -55 57 -67 89 -112 19 -27
37 -48 41 -48 3 0 13 -12 22 -27 9 -16 26 -39 38 -53 12 -14 34 -41 49 -60 14
-19 28 -37 31 -40 3 -3 17 -21 30 -40 13 -19 33 -45 44 -58 12 -12 26 -28 32
-34 7 -8 8 -19 3 -30 -5 -10 -14 -27 -19 -38 -7 -13 -7 -20 0 -20 5 0 10 -10
11 -22 1 -13 5 -3 10 21 5 24 15 51 22 60 7 9 26 88 41 176 15 88 34 194 41
235 16 80 9 135 -16 135 -9 0 -14 -10 -13 -32 1 -18 -2 -30 -7 -27 -5 3 -9 18
-9 35 0 27 -2 29 -40 29 -29 0 -40 4 -40 15 0 11 11 15 40 15 29 0 40 4 40 15
0 12 -16 15 -80 15 -47 0 -80 4 -80 10 0 6 -33 10 -80 10 l-80 0 0 30 0 30
-80 0 c-44 0 -80 4 -80 9 0 5 -20 11 -44 12 -41 4 -43 3 -42 -22z"/>
<path d="M15690 5966 c4 -19 5 -37 2 -40 -3 -4 0 -6 7 -6 9 0 11 -6 6 -17 -4
-10 -11 -40 -15 -68 l-8 -50 -1 68 -1 67 -40 0 -40 0 0 -40 0 -40 -40 0 c-29
0 -40 -4 -40 -15 0 -11 -11 -15 -40 -15 l-40 0 0 -40 0 -40 -40 0 c-36 0 -40
-2 -40 -25 0 -22 -4 -25 -40 -25 l-40 0 0 -40 0 -40 -40 0 -40 0 0 -40 0 -40
-40 0 c-29 0 -40 -4 -40 -15 0 -11 -11 -15 -40 -15 -36 0 -40 -2 -40 -25 0
-20 -5 -25 -25 -25 -16 0 -25 -6 -25 -16 0 -14 -1 -14 -16 0 -8 9 -17 16 -19
16 -2 0 -1 -37 1 -82 4 -86 0 -83 -27 25 -15 58 -26 61 -23 5 3 -39 40 -198
49 -206 2 -2 14 0 27 4 13 4 28 7 35 6 6 -1 27 7 47 18 32 19 48 21 166 18 71
-2 130 -6 130 -9 0 -3 18 -5 40 -4 22 1 40 -1 40 -5 0 -4 19 -13 43 -20 23 -7
44 -16 47 -20 3 -4 15 -10 28 -14 18 -6 22 -4 22 13 0 11 5 23 10 26 6 3 10
26 10 51 0 40 -2 45 -19 39 -39 -12 -61 -14 -61 -4 0 5 9 9 20 9 18 0 20 7 20
75 0 75 1 77 38 74 4 0 6 -28 5 -62 l-3 -62 25 90 c13 50 24 109 25 132 0 24
7 48 16 58 12 12 17 37 18 94 0 44 4 77 8 75 7 -4 23 73 19 93 -1 7 3 22 10
34 8 15 8 24 0 32 -6 6 -11 26 -11 44 0 22 -5 33 -14 33 -11 0 -12 -8 -6 -34z"/>
<path d="M17297 5600 c-18 -6 -13 -41 7 -52 31 -18 15 -28 -44 -28 -57 0 -60
-1 -60 -25 0 -22 -4 -25 -40 -25 -36 0 -40 2 -40 25 l0 26 -302 -3 c-230 -2
-302 -6 -306 -15 -2 -8 6 -13 22 -13 14 0 26 -5 26 -11 0 -19 -45 -4 -55 19
-5 12 -15 20 -21 18 -6 -2 -9 7 -6 25 4 28 3 29 -36 29 -32 0 -42 -4 -47 -20
-3 -11 -2 -28 4 -37 6 -10 11 -12 11 -5 0 14 40 17 40 2 0 -5 -7 -10 -15 -10
-20 0 -19 -16 3 -39 9 -10 27 -32 39 -48 12 -16 36 -44 53 -61 16 -18 30 -35
30 -39 0 -5 13 -22 28 -40 15 -17 37 -44 49 -60 12 -15 34 -42 50 -60 15 -18
42 -49 58 -69 17 -20 36 -43 43 -50 6 -7 12 -17 12 -23 0 -5 9 -13 20 -16 11
-4 26 -18 34 -33 23 -44 76 -94 93 -88 8 4 13 13 9 21 -3 8 0 14 6 12 35 -7
-10 81 -90 173 -7 8 -22 27 -33 43 -11 15 -25 25 -30 22 -5 -4 -6 1 -3 9 4 9
-1 18 -10 22 -9 3 -16 12 -16 18 0 17 -124 138 -150 148 -12 4 -18 12 -15 18
4 6 -7 13 -24 16 -17 4 -28 10 -26 14 3 5 -8 14 -25 22 -33 14 -42 48 -12 48
26 -1 249 -47 261 -54 6 -4 26 -3 45 2 39 11 98 2 104 -16 3 -9 -3 -10 -23 -2
-33 13 -32 13 -39 -6 -3 -8 -2 -12 4 -9 5 3 21 -2 35 -11 14 -9 32 -14 40 -10
9 3 13 2 10 -4 -3 -6 0 -10 7 -9 23 1 50 14 48 24 -1 5 3 11 10 13 22 8 4 -23
-20 -35 l-25 -11 36 -16 c44 -19 153 -81 171 -99 7 -7 24 -20 38 -28 14 -9 55
-44 91 -77 l66 -61 -3 42 c-1 23 -3 103 -4 177 -1 86 -9 167 -21 223 -10 48
-16 94 -13 102 6 14 -18 17 -49 5z"/>
<path d="M2860 5390 c-6 -11 -8 -25 -5 -30 3 -6 2 -10 -2 -10 -13 0 -45 -59
-38 -70 3 -6 1 -10 -5 -10 -5 0 -18 -17 -27 -37 -10 -21 -38 -74 -64 -118
-110 -191 -156 -275 -230 -422 -43 -86 -76 -159 -74 -162 13 -13 51 50 152
249 59 118 110 217 113 220 3 3 11 16 17 30 7 14 24 45 38 70 50 87 59 105 57
114 -2 5 1 12 6 15 13 8 69 120 78 154 7 32 -1 36 -16 7z"/>
<path d="M21470 5208 c-51 -55 -227 -327 -325 -505 -29 -51 -55 -90 -60 -85
-4 4 -5 1 -1 -6 4 -7 3 -18 -2 -25 -12 -14 -124 -238 -142 -284 -7 -18 -16
-33 -21 -33 -4 0 -11 -16 -15 -35 -3 -20 -11 -32 -16 -29 -6 4 -9 1 -6 -7 3
-8 -1 -20 -9 -27 -7 -7 -13 -22 -13 -32 0 -10 -4 -22 -10 -25 -15 -9 -12 -25
4 -25 18 0 61 50 251 290 162 205 190 243 177 248 -13 4 7 42 22 42 6 0 5 -5
-2 -12 -24 -24 -11 -31 13 -8 17 16 23 30 19 42 -4 15 -1 18 12 16 9 -2 19 4
21 12 3 9 1 11 -4 5 -4 -5 -14 -10 -20 -11 -31 -2 -35 -5 -30 -17 3 -7 -2 -13
-12 -13 -9 0 -17 8 -17 17 0 9 5 15 11 13 6 -3 20 4 30 16 18 20 18 20 -12 20
-19 0 -33 -6 -37 -16 -7 -19 -31 -4 -39 25 -5 21 16 54 29 43 4 -4 3 0 -4 9
-9 12 -7 22 12 50 13 19 34 54 48 79 14 25 59 96 101 157 42 62 79 117 82 123
12 19 -14 10 -35 -12z"/>
<path d="M2317 4273 c-34 -105 -68 -239 -121 -468 -61 -264 -60 -260 -117
-460 -33 -112 -38 -144 -30 -163 15 -32 27 -21 40 36 6 26 20 79 31 117 31
107 105 412 165 680 9 39 29 116 45 172 27 95 30 133 10 133 -5 0 -15 -21 -23
-47z"/>
<path d="M5316 3808 c2 -31 6 -65 9 -75 3 -10 -4 0 -15 22 -11 22 -20 37 -20
33 0 -4 -23 -98 -51 -210 -94 -376 -190 -845 -259 -1268 -28 -173 -57 -344
-65 -380 -8 -36 -16 -92 -16 -125 -1 -50 -3 -55 -10 -30 -6 23 -7 15 -5 -32 1
-37 -2 -61 -8 -60 -16 3 -38 -73 -40 -135 0 -43 -3 -52 -9 -35 -5 12 -6 50 -3
85 6 52 4 62 -9 62 -10 0 -15 -10 -15 -30 l0 -30 -239 0 -240 0 -4 -27 c-3
-16 -4 8 -2 52 1 44 0 61 -2 37 -2 -23 -8 -40 -14 -37 -11 8 -3 -126 17 -280
9 -60 17 -130 20 -155 2 -25 17 -157 34 -295 16 -137 43 -380 60 -540 17 -160
33 -305 36 -322 l5 -33 179 0 c175 0 180 1 180 21 0 54 33 551 50 764 81 976
226 1909 430 2760 35 148 37 169 22 225 -6 25 -14 56 -16 70 -3 14 -3 0 0 -32z"/>
<path d="M8824 3507 c-32 -34 -195 -235 -249 -307 -102 -133 -258 -364 -346
-512 -35 -58 -67 -104 -71 -102 -5 3 -8 -2 -8 -11 0 -21 -70 -147 -87 -158 -7
-5 -10 -14 -7 -20 4 -7 2 -7 -7 1 -12 11 -11 16 6 30 17 14 75 110 75 124 0 2
-10 5 -22 5 -17 2 -19 0 -9 -6 9 -6 11 -16 6 -27 -7 -18 -8 -18 -16 1 -8 16
-9 15 -5 -9 4 -31 -3 -42 -47 -71 -38 -25 -45 -12 -8 15 39 27 39 47 1 55 -25
5 -30 12 -30 35 0 48 -9 60 -46 60 -31 0 -34 3 -34 30 l0 30 -80 0 c-47 0 -80
4 -80 10 0 6 -18 10 -40 10 -29 0 -40 4 -40 15 0 8 -6 12 -12 10 -7 -3 -20 0
-28 5 -13 9 -13 11 0 20 13 8 13 10 -1 10 -9 0 -19 -7 -23 -15 -7 -19 -96 -21
-96 -2 0 8 -4 7 -10 -3 -6 -8 -7 -28 -4 -45 3 -20 2 -26 -4 -16 -7 10 -18 0
-46 -41 -20 -30 -36 -64 -36 -76 0 -11 -4 -24 -10 -27 -5 -3 -10 -15 -10 -26
0 -10 -4 -19 -10 -19 -5 0 -13 -18 -16 -40 -4 -22 -10 -40 -15 -40 -5 0 -9 -7
-9 -16 0 -36 -180 -584 -220 -669 -5 -11 -19 -42 -30 -70 -49 -114 -144 -305
-152 -305 -4 0 -8 -6 -8 -12 0 -13 -4 -22 -57 -118 -133 -242 -191 -333 -206
-323 -6 3 -7 1 -3 -6 6 -10 -25 -75 -44 -91 -3 -3 -19 -27 -36 -53 -24 -37
-33 -45 -38 -32 -3 9 -2 13 4 10 6 -3 10 -1 10 5 0 6 9 20 20 32 10 12 16 26
13 32 -4 6 -8 5 -11 -4 -3 -7 -18 -29 -35 -47 -22 -24 -33 -30 -43 -22 -9 7
-18 4 -33 -12 -11 -12 -18 -26 -15 -31 3 -4 1 -8 -5 -8 -18 0 -23 20 -7 26 9
3 16 12 16 20 0 12 19 19 43 15 5 -1 6 7 2 18 -6 20 37 121 65 153 8 9 26 38
40 65 14 26 28 50 32 53 7 6 68 120 152 285 33 66 64 122 68 123 4 2 8 10 8
18 0 8 13 41 29 73 17 32 33 82 37 111 6 48 5 52 -12 48 -16 -3 -19 -13 -20
-56 0 -28 -4 -55 -7 -59 -4 -3 -7 3 -7 15 0 29 -13 31 -232 34 l-186 3 -32
-62 c-18 -34 -29 -67 -25 -74 5 -7 3 -10 -6 -7 -12 4 -78 -83 -79 -105 0 -4
-5 -13 -10 -20 -17 -19 -244 -415 -293 -509 -12 -24 -25 -45 -28 -48 -3 -3
-21 -36 -40 -75 -19 -38 -37 -72 -40 -75 -3 -3 -12 -18 -20 -35 -9 -16 -45
-86 -81 -155 -36 -69 -102 -196 -147 -283 l-80 -157 833 0 834 0 47 193 c145
584 335 1150 526 1565 16 35 29 65 29 68 0 2 37 80 82 172 44 92 82 172 83
177 2 6 19 38 39 72 20 34 36 64 36 67 0 7 104 192 188 336 56 97 250 391 306
466 17 23 38 52 46 64 13 19 112 145 168 215 10 11 24 29 32 39 17 21 21 96 5
96 -5 0 -19 -10 -31 -23z"/>
<path d="M7235 3048 c-164 -232 -275 -392 -372 -538 -34 -52 -67 -102 -73
-110 -40 -58 -132 -200 -178 -275 -31 -49 -59 -91 -64 -93 -4 -2 -8 -8 -8 -14
0 -5 -22 -43 -50 -83 -27 -41 -58 -92 -69 -113 -11 -22 -27 -42 -36 -45 -8 -4
-14 -10 -13 -14 4 -16 -35 -83 -45 -76 -5 3 -7 1 -3 -5 3 -6 1 -16 -6 -24 -7
-7 -20 -26 -28 -43 -24 -50 -32 -58 -41 -43 -14 21 -10 28 9 21 15 -6 16 -5 2
11 -8 11 -16 14 -18 7 -2 -7 -55 -11 -163 -11 l-159 0 0 29 c0 16 -3 43 -6 61
-5 25 -11 31 -26 27 -17 -5 -19 -1 -13 54 3 36 1 59 -5 59 -6 0 -10 11 -10 24
0 29 -42 66 -75 66 -41 0 -89 -45 -146 -135 -67 -108 -115 -221 -125 -293 -5
-40 -11 -52 -24 -52 -23 0 -50 32 -50 58 0 12 -5 22 -10 22 -6 0 -8 15 -4 40
8 46 -7 54 -23 13 l-11 -28 -1 28 -1 28 -140 -3 c-134 -3 -140 -2 -140 17 0
17 2 18 11 5 9 -12 9 -11 3 5 -4 11 -7 32 -7 48 0 15 -3 27 -8 27 -4 0 -10 10
-12 23 -2 12 -2 -7 0 -42 4 -45 2 -61 -6 -56 -7 4 -10 14 -7 23 3 10 1 35 -4
57 l-9 40 4 -47 c3 -28 0 -48 -5 -48 -14 0 -12 -27 3 -33 8 -4 9 -8 1 -14 -21
-16 -28 -44 -39 -163 -10 -96 -12 -113 -25 -189 -6 -40 -10 -86 -8 -102 3 -16
2 -30 -2 -31 -9 -4 -46 -431 -70 -803 -11 -171 -20 -311 -20 -312 0 -2 136 -3
303 -3 l302 0 48 98 c120 245 360 704 474 905 24 42 55 99 70 125 115 207 415
710 587 982 99 158 465 708 631 949 60 87 65 98 65 148 0 29 -1 53 -2 53 -2 0
-70 -96 -153 -212z"/>
<path d="M1497 3093 c-22 -21 -4 -57 55 -111 78 -71 305 -298 418 -417 80 -84
161 -174 286 -320 28 -33 69 -81 92 -107 22 -26 61 -74 87 -108 46 -59 66 -73
164 -111 24 -9 24 -9 -4 28 -16 21 -40 52 -54 69 -14 17 -33 40 -41 50 -51 64
-208 246 -299 346 -151 166 -678 688 -695 688 -1 0 -6 -3 -9 -7z"/>
<path d="M3303 398 c89 -131 163 -245 210 -323 38 -64 50 -75 74 -75 34 0 32
5 -83 180 -195 297 -251 370 -283 370 -17 0 -4 -25 82 -152z"/>
</g>
</svg>
